<svg width="504" height="20" viewBox="0 0 504 20" fill="none" xmlns="http://www.w3.org/2000/svg">
<g clip-path="url(#clip0)">
<path fill-rule="evenodd" clip-rule="evenodd" d="M0.390698 -1840H0V-1834.99H0.390698V-1840ZM0.390698 -1825H0V-1814.99H0.390698V-1825ZM0.390698 -1805.01H0V-1795H0.390698V-1805.01ZM0.390698 -1785.01H0V-1775H0.390698V-1785.01ZM0.390698 -1765.02H0V-1755.01H0.390698V-1765.02ZM0.390698 -1745.02H0V-1735.01H0.390698V-1745.02ZM0.390698 -1725.03H0V-1715.02H0.390698V-1725.03ZM0.390698 -1705.03H0V-1695.02H0.390698V-1705.03ZM0.390698 -1685.04H0V-1675.03H0.390698V-1685.04ZM0.390698 -1665.04H0V-1655.03H0.390698V-1665.04ZM0.390698 -1645.05H0V-1635.04H0.390698V-1645.05ZM0.390698 -1625.05H0V-1615.04H0.390698V-1625.05ZM0.390698 -1605.06H0V-1595.05H0.390698V-1605.06ZM0.390698 -1585.06H0V-1575.05H0.390698V-1585.06ZM0.390698 -1565.07H0V-1555.06H0.390698V-1565.07ZM0.390698 -1545.07H0V-1535.06H0.390698V-1545.07ZM0.390698 -1525.08H0V-1515.07H0.390698V-1525.08ZM0.390698 -1505.08H0V-1495.07H0.390698V-1505.08ZM0.390698 -1485.08H0V-1475.08H0.390698V-1485.08ZM0.390698 -1465.09H0V-1455.08H0.390698V-1465.09ZM0.390698 -1445.09H0V-1435.09H0.390698V-1445.09ZM0.390698 -1425.1H0V-1415.09H0.390698V-1425.1ZM0.390698 -1405.1H0V-1395.1H0.390698V-1405.1ZM0.390698 -1385.11H0V-1375.1H0.390698V-1385.11ZM0.390698 -1365.11H0V-1355.11H0.390698V-1365.11ZM0.390698 -1345.12H0V-1335.11H0.390698V-1345.12ZM0.390698 -1325.12H0V-1315.12H0.390698V-1325.12ZM0.390698 -1305.13H0V-1295.12H0.390698V-1305.13ZM0.390698 -1285.13H0V-1275.13H0.390698V-1285.13ZM0.390698 -1265.14H0V-1255.13H0.390698V-1265.14ZM0.390698 -1245.14H0V-1235.13H0.390698V-1245.14ZM0.390698 -1225.15H0V-1215.14H0.390698V-1225.15ZM0.390698 -1205.15H0V-1195.14H0.390698V-1205.15ZM0.390698 -1185.16H0V-1175.15H0.390698V-1185.16ZM0.390698 -1165.16H0V-1155.15H0.390698V-1165.16ZM0.390698 -1145.17H0V-1135.16H0.390698V-1145.17ZM0.390698 -1125.17H0V-1115.16H0.390698V-1125.17ZM0.390698 -1105.18H0V-1095.17H0.390698V-1105.18ZM0.390698 -1085.18H0V-1075.17H0.390698V-1085.18ZM0.390698 -1065.18H0V-1055.18H0.390698V-1065.18ZM0.390698 -1045.19H0V-1035.18H0.390698V-1045.19ZM0.390698 -1025.19H0V-1015.19H0.390698V-1025.19ZM0.390698 -1005.2H0V-995.193H0.390698V-1005.2ZM0.390698 -985.204H0V-975.198H0.390698V-985.204ZM0.390698 -965.209H0V-955.203H0.390698V-965.209ZM0.390698 -945.213H0V-935.208H0.390698V-945.213ZM0.390698 -925.218H0V-915.213H0.390698V-925.218ZM0.390698 -905.223H0V-895.218H0.390698V-905.223ZM0.390698 -885.228H0V-875.223H0.390698V-885.228ZM0.390698 -865.232H0V-855.228H0.390698V-865.232ZM0.390698 -845.237H0V-835.233H0.390698V-845.237ZM0.390698 -825.242H0V-815.237H0.390698V-825.242ZM0.390698 -805.247H0V-795.242H0.390698V-805.247ZM0.390698 -785.252H0V-775.247H0.390698V-785.252ZM0.390698 -765.257H0V-755.252H0.390698V-765.257ZM0.390698 -745.261H0V-735.257H0.390698V-745.261ZM0.390698 -725.266H0V-715.262H0.390698V-725.266ZM0.390698 -705.271H0V-695.267H0.390698V-705.271ZM0.390698 -685.276H0V-675.271H0.390698V-685.276ZM0.390698 -665.281H0V-655.276H0.390698V-665.281ZM0.390698 -645.286H0V-635.281H0.390698V-645.286ZM0.390698 -625.291H0V-615.286H0.390698V-625.291ZM0.390698 -605.296H0V-595.291H0.390698V-605.296ZM0.390698 -585.301H0V-575.296H0.390698V-585.301ZM0.390698 -565.305H0V-555.301H0.390698V-565.305ZM0.390698 -545.31H0V-535.306H0.390698V-545.31ZM0.390698 -525.315H0V-515.31H0.390698V-525.315ZM0.390698 -505.32H0V-495.315H0.390698V-505.32ZM0.390698 -485.325H0V-475.32H0.390698V-485.325ZM0.390698 -465.33H0V-455.325H0.390698V-465.33ZM0.390698 -445.335H0V-435.33H0.390698V-445.335ZM0.390698 -425.34H0V-415.335H0.390698V-425.34ZM0.390698 -405.344H0V-395.34H0.390698V-405.344ZM0.390698 -385.349H0V-375.345H0.390698V-385.349ZM0.390698 -365.354H0V-355.35H0.390698V-365.354ZM0.390698 -345.359H0V-335.354H0.390698V-345.359ZM0.390698 -325.364H0V-315.359H0.390698V-325.364ZM0.390698 -305.369H0V-295.364H0.390698V-305.369ZM0.390698 -285.374H0V-275.369H0.390698V-285.374ZM0.390698 -265.379H0V-255.374H0.390698V-265.379ZM0.390698 -245.384H0V-235.379H0.390698V-245.384ZM0.390698 -225.388H0V-215.384H0.390698V-225.388ZM0.390698 -205.393H0V-195.389H0.390698V-205.393ZM0.390698 -185.398H0V-175.394H0.390698V-185.398ZM0.390698 -165.403H0V-155.398H0.390698V-165.403ZM0.390698 -145.408H0V-135.403H0.390698V-145.408ZM0.390698 -125.413H0V-115.408H0.390698V-125.413ZM0.390698 -105.418H0V-95.413H0.390698V-105.418ZM0.390698 -85.4226H0V-75.4178H0.390698V-85.4226ZM0.390698 -65.4275H0V-55.4229H0.390698V-65.4275ZM0.390698 -45.4324H0V-35.4277H0.390698V-45.4324ZM0.390698 -25.4373H0V-15.4326H0.390698V-25.4373ZM0.390698 -5.44214H0V4.5625H0.390698V-5.44214ZM0.390698 14.553H0V24.5575H0.390698V14.553ZM0.390698 34.5481H0V44.5529H0.390698V34.5481ZM0.390698 54.5432H0V64.548H0.390698V54.5432ZM0.390698 74.5383H0V84.543H0.390698V74.5383ZM0.390698 94.5334H0V104.538H0.390698V94.5334ZM0.390698 114.529H0V124.533H0.390698V114.529ZM0.390698 134.524H0V144.528H0.390698V134.524ZM0.390698 154.519H0V164.523H0.390698V154.519ZM0.390698 174.514H0V184.519H0.390698V174.514ZM0.390698 194.509H0V204.514H0.390698V194.509ZM0.390698 214.504H0V224.509H0.390698V214.504ZM0.390698 234.499H0V244.504H0.390698V234.499ZM0.390698 254.494H0V264.499H0.390698V254.494ZM0.390698 274.49H0V284.494H0.390698V274.49ZM0.390698 294.485H0V304.489H0.390698V294.485ZM0.390698 314.48H0V324.484H0.390698V314.48ZM0.390698 334.475H0V344.479H0.390698V334.475ZM0.390698 354.47H0V364.475H0.390698V354.47ZM0.390698 374.465H0V384.47H0.390698V374.465ZM0.390698 394.46H0V404.465H0.390698V394.46ZM0.390698 414.455H0V424.46H0.390698V414.455ZM0.390698 434.45H0V444.455H0.390698V434.45ZM0.390698 454.446H0V464.45H0.390698V454.446ZM0.390698 474.441H0V484.445H0.390698V474.441ZM0.390698 494.436H0V504.44H0.390698V494.436ZM0.390698 514.431H0V524.436H0.390698V514.431ZM0.390698 534.426H0V544.431H0.390698V534.426ZM0.390698 554.421H0V564.426H0.390698V554.421ZM0.390698 574.416H0V584.421H0.390698V574.416ZM0.390698 594.411H0V604.416H0.390698V594.411ZM0.390698 614.406H0V624.411H0.390698V614.406ZM0.390698 634.402H0V644.406H0.390698V634.402ZM0.390698 654.397H0V664.401H0.390698V654.397ZM0.390698 674.392H0V684.396H0.390698V674.392ZM0.390698 694.387H0V704.392H0.390698V694.387ZM0.390698 714.382H0V724.387H0.390698V714.382ZM0.390698 734.377H0V744.382H0.390698V734.377ZM0.390698 754.372H0V764.377H0.390698V754.372ZM0.390698 774.367H0V784.372H0.390698V774.367ZM0.390698 794.363H0V804.367H0.390698V794.363ZM0.390698 814.358H0V824.362H0.390698V814.358ZM0.390698 834.353H0V844.357H0.390698V834.353ZM0.390698 854.348H0V864.353H0.390698V854.348ZM0.390698 874.343H0V884.348H0.390698V874.343ZM0.390698 894.338H0V904.343H0.390698V894.338ZM0.390698 914.333H0V924.338H0.390698V914.333ZM0.390698 934.328H0V944.333H0.390698V934.328ZM0.390698 954.323H0V964.328H0.390698V954.323ZM0.390698 974.319H0V984.323H0.390698V974.319ZM0.390698 994.314H0V1004.32H0.390698V994.314ZM0.390698 1014.31H0V1024.31H0.390698V1014.31ZM0.390698 1034.3H0V1044.31H0.390698V1034.3ZM0.390698 1054.3H0V1064.3H0.390698V1054.3ZM0.390698 1074.29H0V1084.3H0.390698V1074.29ZM0.390698 1094.29H0V1104.29H0.390698V1094.29ZM0.390698 1114.28H0V1124.29H0.390698V1114.28ZM0.390698 1134.28H0V1144.28H0.390698V1134.28ZM0.390698 1154.27H0V1164.28H0.390698V1154.27ZM0.390698 1174.27H0V1184.27H0.390698V1174.27ZM0.390698 1194.26H0V1204.27H0.390698V1194.26ZM0.390698 1214.26H0V1224.26H0.390698V1214.26ZM0.390698 1234.26H0V1244.26H0.390698V1234.26ZM0.390698 1254.25H0V1264.26H0.390698V1254.25ZM0.390698 1274.25H0V1284.25H0.390698V1274.25ZM0.390698 1294.24H0V1304.25H0.390698V1294.24ZM0.390698 1314.24H0V1324.24H0.390698V1314.24ZM0.390698 1334.23H0V1344.24H0.390698V1334.23ZM0.390698 1354.23H0V1364.23H0.390698V1354.23ZM0.390698 1374.22H0V1384.23H0.390698V1374.22ZM0.390698 1394.22H0V1404.22H0.390698V1394.22ZM0.390698 1414.21H0V1424.22H0.390698V1414.21ZM0.390698 1434.21H0V1444.21H0.390698V1434.21ZM0.390698 1454.2H0V1464.21H0.390698V1454.2ZM0.390698 1474.2H0V1484.2H0.390698V1474.2ZM0.390698 1494.19H0V1504.2H0.390698V1494.19ZM0.390698 1514.19H0V1524.19H0.390698V1514.19ZM0.390698 1534.18H0V1544.19H0.390698V1534.18ZM0.390698 1554.18H0V1564.18H0.390698V1554.18ZM0.390698 1574.17H0V1584.18H0.390698V1574.17ZM0.390698 1594.17H0V1604.17H0.390698V1594.17ZM0.390698 1614.16H0V1624.17H0.390698V1614.16ZM0.390698 1634.16H0V1644.17H0.390698V1634.16ZM0.390698 1654.15H0V1664.16H0.390698V1654.15ZM0.390698 1674.15H0V1684.16H0.390698V1674.15ZM0.390698 1694.14H0V1704.15H0.390698V1694.14ZM0.390698 1714.14H0V1724.15H0.390698V1714.14ZM0.390698 1734.13H0V1744.14H0.390698V1734.13ZM0.390698 1754.13H0V1764.14H0.390698V1754.13ZM0.390698 1774.12H0V1784.13H0.390698V1774.12ZM0.390698 1794.12H0V1804.13H0.390698V1794.12ZM0.390698 1814.11H0V1824.12H0.390698V1814.11ZM0.390698 1834.11H0V1844.12H0.390698V1834.11ZM0.390698 1854.1H0V1864.11H0.390698V1854.1ZM0.390698 1874.1H0V1884.11H0.390698V1874.1ZM0.390698 1894.09H0V1904.1H0.390698V1894.09ZM0.390698 1914.09H0V1924.1H0.390698V1914.09ZM0.390698 1934.08H0V1944.09H0.390698V1934.08ZM0.390698 1954.08H0V1964.09H0.390698V1954.08ZM0.390698 1974.07H0V1984.08H0.390698V1974.07ZM0.390698 1994.07H0V2004.08H0.390698V1994.07ZM0.390698 2014.06H0V2024.07H0.390698V2014.06ZM0.390698 2034.06H0V2044.07H0.390698V2034.06ZM0.390698 2054.05H0V2064.06H0.390698V2054.05ZM0.390698 2074.05H0V2084.06H0.390698V2074.05ZM0.390698 2094.05H0V2104.06H0.390698V2094.05ZM0.390698 2114.04H0V2124.05H0.390698V2114.04ZM0.390698 2134.04H0V2144.05H0.390698V2134.04ZM0.390698 2154.03H0V2164.04H0.390698V2154.03ZM0.390698 2174.03H0V2184.04H0.390698V2174.03ZM0.390698 2194.02H0V2199.03H0.390698V2194.02Z" fill="#DCDCDC" fill-opacity="0.7"/>
<path fill-rule="evenodd" clip-rule="evenodd" d="M101.191 -1840H100.8V-1834.99H101.191V-1840ZM101.191 -1825H100.8V-1814.99H101.191V-1825ZM101.191 -1805.01H100.8V-1795H101.191V-1805.01ZM101.191 -1785.01H100.8V-1775H101.191V-1785.01ZM101.191 -1765.02H100.8V-1755.01H101.191V-1765.02ZM101.191 -1745.02H100.8V-1735.01H101.191V-1745.02ZM101.191 -1725.03H100.8V-1715.02H101.191V-1725.03ZM101.191 -1705.03H100.8V-1695.02H101.191V-1705.03ZM101.191 -1685.04H100.8V-1675.03H101.191V-1685.04ZM101.191 -1665.04H100.8V-1655.03H101.191V-1665.04ZM101.191 -1645.05H100.8V-1635.04H101.191V-1645.05ZM101.191 -1625.05H100.8V-1615.04H101.191V-1625.05ZM101.191 -1605.06H100.8V-1595.05H101.191V-1605.06ZM101.191 -1585.06H100.8V-1575.05H101.191V-1585.06ZM101.191 -1565.07H100.8V-1555.06H101.191V-1565.07ZM101.191 -1545.07H100.8V-1535.06H101.191V-1545.07ZM101.191 -1525.08H100.8V-1515.07H101.191V-1525.08ZM101.191 -1505.08H100.8V-1495.07H101.191V-1505.08ZM101.191 -1485.08H100.8V-1475.08H101.191V-1485.08ZM101.191 -1465.09H100.8V-1455.08H101.191V-1465.09ZM101.191 -1445.09H100.8V-1435.09H101.191V-1445.09ZM101.191 -1425.1H100.8V-1415.09H101.191V-1425.1ZM101.191 -1405.1H100.8V-1395.1H101.191V-1405.1ZM101.191 -1385.11H100.8V-1375.1H101.191V-1385.11ZM101.191 -1365.11H100.8V-1355.11H101.191V-1365.11ZM101.191 -1345.12H100.8V-1335.11H101.191V-1345.12ZM101.191 -1325.12H100.8V-1315.12H101.191V-1325.12ZM101.191 -1305.13H100.8V-1295.12H101.191V-1305.13ZM101.191 -1285.13H100.8V-1275.13H101.191V-1285.13ZM101.191 -1265.14H100.8V-1255.13H101.191V-1265.14ZM101.191 -1245.14H100.8V-1235.13H101.191V-1245.14ZM101.191 -1225.15H100.8V-1215.14H101.191V-1225.15ZM101.191 -1205.15H100.8V-1195.14H101.191V-1205.15ZM101.191 -1185.16H100.8V-1175.15H101.191V-1185.16ZM101.191 -1165.16H100.8V-1155.15H101.191V-1165.16ZM101.191 -1145.17H100.8V-1135.16H101.191V-1145.17ZM101.191 -1125.17H100.8V-1115.16H101.191V-1125.17ZM101.191 -1105.18H100.8V-1095.17H101.191V-1105.18ZM101.191 -1085.18H100.8V-1075.17H101.191V-1085.18ZM101.191 -1065.18H100.8V-1055.18H101.191V-1065.18ZM101.191 -1045.19H100.8V-1035.18H101.191V-1045.19ZM101.191 -1025.19H100.8V-1015.19H101.191V-1025.19ZM101.191 -1005.2H100.8V-995.193H101.191V-1005.2ZM101.191 -985.204H100.8V-975.198H101.191V-985.204ZM101.191 -965.209H100.8V-955.203H101.191V-965.209ZM101.191 -945.213H100.8V-935.208H101.191V-945.213ZM101.191 -925.218H100.8V-915.213H101.191V-925.218ZM101.191 -905.223H100.8V-895.218H101.191V-905.223ZM101.191 -885.228H100.8V-875.223H101.191V-885.228ZM101.191 -865.232H100.8V-855.228H101.191V-865.232ZM101.191 -845.237H100.8V-835.233H101.191V-845.237ZM101.191 -825.242H100.8V-815.237H101.191V-825.242ZM101.191 -805.247H100.8V-795.242H101.191V-805.247ZM101.191 -785.252H100.8V-775.247H101.191V-785.252ZM101.191 -765.257H100.8V-755.252H101.191V-765.257ZM101.191 -745.261H100.8V-735.257H101.191V-745.261ZM101.191 -725.266H100.8V-715.262H101.191V-725.266ZM101.191 -705.271H100.8V-695.267H101.191V-705.271ZM101.191 -685.276H100.8V-675.271H101.191V-685.276ZM101.191 -665.281H100.8V-655.276H101.191V-665.281ZM101.191 -645.286H100.8V-635.281H101.191V-645.286ZM101.191 -625.291H100.8V-615.286H101.191V-625.291ZM101.191 -605.296H100.8V-595.291H101.191V-605.296ZM101.191 -585.301H100.8V-575.296H101.191V-585.301ZM101.191 -565.305H100.8V-555.301H101.191V-565.305ZM101.191 -545.31H100.8V-535.306H101.191V-545.31ZM101.191 -525.315H100.8V-515.31H101.191V-525.315ZM101.191 -505.32H100.8V-495.315H101.191V-505.32ZM101.191 -485.325H100.8V-475.32H101.191V-485.325ZM101.191 -465.33H100.8V-455.325H101.191V-465.33ZM101.191 -445.335H100.8V-435.33H101.191V-445.335ZM101.191 -425.34H100.8V-415.335H101.191V-425.34ZM101.191 -405.344H100.8V-395.34H101.191V-405.344ZM101.191 -385.349H100.8V-375.345H101.191V-385.349ZM101.191 -365.354H100.8V-355.35H101.191V-365.354ZM101.191 -345.359H100.8V-335.354H101.191V-345.359ZM101.191 -325.364H100.8V-315.359H101.191V-325.364ZM101.191 -305.369H100.8V-295.364H101.191V-305.369ZM101.191 -285.374H100.8V-275.369H101.191V-285.374ZM101.191 -265.379H100.8V-255.374H101.191V-265.379ZM101.191 -245.384H100.8V-235.379H101.191V-245.384ZM101.191 -225.388H100.8V-215.384H101.191V-225.388ZM101.191 -205.393H100.8V-195.389H101.191V-205.393ZM101.191 -185.398H100.8V-175.394H101.191V-185.398ZM101.191 -165.403H100.8V-155.398H101.191V-165.403ZM101.191 -145.408H100.8V-135.403H101.191V-145.408ZM101.191 -125.413H100.8V-115.408H101.191V-125.413ZM101.191 -105.418H100.8V-95.413H101.191V-105.418ZM101.191 -85.4226H100.8V-75.4178H101.191V-85.4226ZM101.191 -65.4275H100.8V-55.4229H101.191V-65.4275ZM101.191 -45.4324H100.8V-35.4277H101.191V-45.4324ZM101.191 -25.4373H100.8V-15.4326H101.191V-25.4373ZM101.191 -5.44214H100.8V4.5625H101.191V-5.44214ZM101.191 14.553H100.8V24.5575H101.191V14.553ZM101.191 34.5481H100.8V44.5529H101.191V34.5481ZM101.191 54.5432H100.8V64.548H101.191V54.5432ZM101.191 74.5383H100.8V84.543H101.191V74.5383ZM101.191 94.5334H100.8V104.538H101.191V94.5334ZM101.191 114.529H100.8V124.533H101.191V114.529ZM101.191 134.524H100.8V144.528H101.191V134.524ZM101.191 154.519H100.8V164.523H101.191V154.519ZM101.191 174.514H100.8V184.519H101.191V174.514ZM101.191 194.509H100.8V204.514H101.191V194.509ZM101.191 214.504H100.8V224.509H101.191V214.504ZM101.191 234.499H100.8V244.504H101.191V234.499ZM101.191 254.494H100.8V264.499H101.191V254.494ZM101.191 274.49H100.8V284.494H101.191V274.49ZM101.191 294.485H100.8V304.489H101.191V294.485ZM101.191 314.48H100.8V324.484H101.191V314.48ZM101.191 334.475H100.8V344.479H101.191V334.475ZM101.191 354.47H100.8V364.475H101.191V354.47ZM101.191 374.465H100.8V384.47H101.191V374.465ZM101.191 394.46H100.8V404.465H101.191V394.46ZM101.191 414.455H100.8V424.46H101.191V414.455ZM101.191 434.45H100.8V444.455H101.191V434.45ZM101.191 454.446H100.8V464.45H101.191V454.446ZM101.191 474.441H100.8V484.445H101.191V474.441ZM101.191 494.436H100.8V504.44H101.191V494.436ZM101.191 514.431H100.8V524.436H101.191V514.431ZM101.191 534.426H100.8V544.431H101.191V534.426ZM101.191 554.421H100.8V564.426H101.191V554.421ZM101.191 574.416H100.8V584.421H101.191V574.416ZM101.191 594.411H100.8V604.416H101.191V594.411ZM101.191 614.406H100.8V624.411H101.191V614.406ZM101.191 634.402H100.8V644.406H101.191V634.402ZM101.191 654.397H100.8V664.401H101.191V654.397ZM101.191 674.392H100.8V684.396H101.191V674.392ZM101.191 694.387H100.8V704.392H101.191V694.387ZM101.191 714.382H100.8V724.387H101.191V714.382ZM101.191 734.377H100.8V744.382H101.191V734.377ZM101.191 754.372H100.8V764.377H101.191V754.372ZM101.191 774.367H100.8V784.372H101.191V774.367ZM101.191 794.363H100.8V804.367H101.191V794.363ZM101.191 814.358H100.8V824.362H101.191V814.358ZM101.191 834.353H100.8V844.357H101.191V834.353ZM101.191 854.348H100.8V864.353H101.191V854.348ZM101.191 874.343H100.8V884.348H101.191V874.343ZM101.191 894.338H100.8V904.343H101.191V894.338ZM101.191 914.333H100.8V924.338H101.191V914.333ZM101.191 934.328H100.8V944.333H101.191V934.328ZM101.191 954.323H100.8V964.328H101.191V954.323ZM101.191 974.319H100.8V984.323H101.191V974.319ZM101.191 994.314H100.8V1004.32H101.191V994.314ZM101.191 1014.31H100.8V1024.31H101.191V1014.31ZM101.191 1034.3H100.8V1044.31H101.191V1034.3ZM101.191 1054.3H100.8V1064.3H101.191V1054.3ZM101.191 1074.29H100.8V1084.3H101.191V1074.29ZM101.191 1094.29H100.8V1104.29H101.191V1094.29ZM101.191 1114.28H100.8V1124.29H101.191V1114.28ZM101.191 1134.28H100.8V1144.28H101.191V1134.28ZM101.191 1154.27H100.8V1164.28H101.191V1154.27ZM101.191 1174.27H100.8V1184.27H101.191V1174.27ZM101.191 1194.26H100.8V1204.27H101.191V1194.26ZM101.191 1214.26H100.8V1224.26H101.191V1214.26ZM101.191 1234.26H100.8V1244.26H101.191V1234.26ZM101.191 1254.25H100.8V1264.26H101.191V1254.25ZM101.191 1274.25H100.8V1284.25H101.191V1274.25ZM101.191 1294.24H100.8V1304.25H101.191V1294.24ZM101.191 1314.24H100.8V1324.24H101.191V1314.24ZM101.191 1334.23H100.8V1344.24H101.191V1334.23ZM101.191 1354.23H100.8V1364.23H101.191V1354.23ZM101.191 1374.22H100.8V1384.23H101.191V1374.22ZM101.191 1394.22H100.8V1404.22H101.191V1394.22ZM101.191 1414.21H100.8V1424.22H101.191V1414.21ZM101.191 1434.21H100.8V1444.21H101.191V1434.21ZM101.191 1454.2H100.8V1464.21H101.191V1454.2ZM101.191 1474.2H100.8V1484.2H101.191V1474.2ZM101.191 1494.19H100.8V1504.2H101.191V1494.19ZM101.191 1514.19H100.8V1524.19H101.191V1514.19ZM101.191 1534.18H100.8V1544.19H101.191V1534.18ZM101.191 1554.18H100.8V1564.18H101.191V1554.18ZM101.191 1574.17H100.8V1584.18H101.191V1574.17ZM101.191 1594.17H100.8V1604.17H101.191V1594.17ZM101.191 1614.16H100.8V1624.17H101.191V1614.16ZM101.191 1634.16H100.8V1644.17H101.191V1634.16ZM101.191 1654.15H100.8V1664.16H101.191V1654.15ZM101.191 1674.15H100.8V1684.16H101.191V1674.15ZM101.191 1694.14H100.8V1704.15H101.191V1694.14ZM101.191 1714.14H100.8V1724.15H101.191V1714.14ZM101.191 1734.13H100.8V1744.14H101.191V1734.13ZM101.191 1754.13H100.8V1764.14H101.191V1754.13ZM101.191 1774.12H100.8V1784.13H101.191V1774.12ZM101.191 1794.12H100.8V1804.13H101.191V1794.12ZM101.191 1814.11H100.8V1824.12H101.191V1814.11ZM101.191 1834.11H100.8V1844.12H101.191V1834.11ZM101.191 1854.1H100.8V1864.11H101.191V1854.1ZM101.191 1874.1H100.8V1884.11H101.191V1874.1ZM101.191 1894.09H100.8V1904.1H101.191V1894.09ZM101.191 1914.09H100.8V1924.1H101.191V1914.09ZM101.191 1934.08H100.8V1944.09H101.191V1934.08ZM101.191 1954.08H100.8V1964.09H101.191V1954.08ZM101.191 1974.07H100.8V1984.08H101.191V1974.07ZM101.191 1994.07H100.8V2004.08H101.191V1994.07ZM101.191 2014.06H100.8V2024.07H101.191V2014.06ZM101.191 2034.06H100.8V2044.07H101.191V2034.06ZM101.191 2054.05H100.8V2064.06H101.191V2054.05ZM101.191 2074.05H100.8V2084.06H101.191V2074.05ZM101.191 2094.05H100.8V2104.06H101.191V2094.05ZM101.191 2114.04H100.8V2124.05H101.191V2114.04ZM101.191 2134.04H100.8V2144.05H101.191V2134.04ZM101.191 2154.03H100.8V2164.04H101.191V2154.03ZM101.191 2174.03H100.8V2184.04H101.191V2174.03ZM101.191 2194.02H100.8V2199.03H101.191V2194.02Z" fill="#DCDCDC" fill-opacity="0.7"/>
<path fill-rule="evenodd" clip-rule="evenodd" d="M403.2 -1840H402.809V-1834.99H403.2V-1840ZM403.2 -1825H402.809V-1814.99H403.2V-1825ZM403.2 -1805.01H402.809V-1795H403.2V-1805.01ZM403.2 -1785.01H402.809V-1775H403.2V-1785.01ZM403.2 -1765.02H402.809V-1755.01H403.2V-1765.02ZM403.2 -1745.02H402.809V-1735.01H403.2V-1745.02ZM403.2 -1725.03H402.809V-1715.02H403.2V-1725.03ZM403.2 -1705.03H402.809V-1695.02H403.2V-1705.03ZM403.2 -1685.04H402.809V-1675.03H403.2V-1685.04ZM403.2 -1665.04H402.809V-1655.03H403.2V-1665.04ZM403.2 -1645.05H402.809V-1635.04H403.2V-1645.05ZM403.2 -1625.05H402.809V-1615.04H403.2V-1625.05ZM403.2 -1605.06H402.809V-1595.05H403.2V-1605.06ZM403.2 -1585.06H402.809V-1575.05H403.2V-1585.06ZM403.2 -1565.07H402.809V-1555.06H403.2V-1565.07ZM403.2 -1545.07H402.809V-1535.06H403.2V-1545.07ZM403.2 -1525.08H402.809V-1515.07H403.2V-1525.08ZM403.2 -1505.08H402.809V-1495.07H403.2V-1505.08ZM403.2 -1485.08H402.809V-1475.08H403.2V-1485.08ZM403.2 -1465.09H402.809V-1455.08H403.2V-1465.09ZM403.2 -1445.09H402.809V-1435.09H403.2V-1445.09ZM403.2 -1425.1H402.809V-1415.09H403.2V-1425.1ZM403.2 -1405.1H402.809V-1395.1H403.2V-1405.1ZM403.2 -1385.11H402.809V-1375.1H403.2V-1385.11ZM403.2 -1365.11H402.809V-1355.11H403.2V-1365.11ZM403.2 -1345.12H402.809V-1335.11H403.2V-1345.12ZM403.2 -1325.12H402.809V-1315.12H403.2V-1325.12ZM403.2 -1305.13H402.809V-1295.12H403.2V-1305.13ZM403.2 -1285.13H402.809V-1275.13H403.2V-1285.13ZM403.2 -1265.14H402.809V-1255.13H403.2V-1265.14ZM403.2 -1245.14H402.809V-1235.13H403.2V-1245.14ZM403.2 -1225.15H402.809V-1215.14H403.2V-1225.15ZM403.2 -1205.15H402.809V-1195.14H403.2V-1205.15ZM403.2 -1185.16H402.809V-1175.15H403.2V-1185.16ZM403.2 -1165.16H402.809V-1155.15H403.2V-1165.16ZM403.2 -1145.17H402.809V-1135.16H403.2V-1145.17ZM403.2 -1125.17H402.809V-1115.16H403.2V-1125.17ZM403.2 -1105.18H402.809V-1095.17H403.2V-1105.18ZM403.2 -1085.18H402.809V-1075.17H403.2V-1085.18ZM403.2 -1065.18H402.809V-1055.18H403.2V-1065.18ZM403.2 -1045.19H402.809V-1035.18H403.2V-1045.19ZM403.2 -1025.19H402.809V-1015.19H403.2V-1025.19ZM403.2 -1005.2H402.809V-995.193H403.2V-1005.2ZM403.2 -985.204H402.809V-975.198H403.2V-985.204ZM403.2 -965.209H402.809V-955.203H403.2V-965.209ZM403.2 -945.213H402.809V-935.208H403.2V-945.213ZM403.2 -925.218H402.809V-915.213H403.2V-925.218ZM403.2 -905.223H402.809V-895.218H403.2V-905.223ZM403.2 -885.228H402.809V-875.223H403.2V-885.228ZM403.2 -865.232H402.809V-855.228H403.2V-865.232ZM403.2 -845.237H402.809V-835.233H403.2V-845.237ZM403.2 -825.242H402.809V-815.237H403.2V-825.242ZM403.2 -805.247H402.809V-795.242H403.2V-805.247ZM403.2 -785.252H402.809V-775.247H403.2V-785.252ZM403.2 -765.257H402.809V-755.252H403.2V-765.257ZM403.2 -745.261H402.809V-735.257H403.2V-745.261ZM403.2 -725.266H402.809V-715.262H403.2V-725.266ZM403.2 -705.271H402.809V-695.267H403.2V-705.271ZM403.2 -685.276H402.809V-675.271H403.2V-685.276ZM403.2 -665.281H402.809V-655.276H403.2V-665.281ZM403.2 -645.286H402.809V-635.281H403.2V-645.286ZM403.2 -625.291H402.809V-615.286H403.2V-625.291ZM403.2 -605.296H402.809V-595.291H403.2V-605.296ZM403.2 -585.301H402.809V-575.296H403.2V-585.301ZM403.2 -565.305H402.809V-555.301H403.2V-565.305ZM403.2 -545.31H402.809V-535.306H403.2V-545.31ZM403.2 -525.315H402.809V-515.31H403.2V-525.315ZM403.2 -505.32H402.809V-495.315H403.2V-505.32ZM403.2 -485.325H402.809V-475.32H403.2V-485.325ZM403.2 -465.33H402.809V-455.325H403.2V-465.33ZM403.2 -445.335H402.809V-435.33H403.2V-445.335ZM403.2 -425.34H402.809V-415.335H403.2V-425.34ZM403.2 -405.344H402.809V-395.34H403.2V-405.344ZM403.2 -385.349H402.809V-375.345H403.2V-385.349ZM403.2 -365.354H402.809V-355.35H403.2V-365.354ZM403.2 -345.359H402.809V-335.354H403.2V-345.359ZM403.2 -325.364H402.809V-315.359H403.2V-325.364ZM403.2 -305.369H402.809V-295.364H403.2V-305.369ZM403.2 -285.374H402.809V-275.369H403.2V-285.374ZM403.2 -265.379H402.809V-255.374H403.2V-265.379ZM403.2 -245.384H402.809V-235.379H403.2V-245.384ZM403.2 -225.388H402.809V-215.384H403.2V-225.388ZM403.2 -205.393H402.809V-195.389H403.2V-205.393ZM403.2 -185.398H402.809V-175.394H403.2V-185.398ZM403.2 -165.403H402.809V-155.398H403.2V-165.403ZM403.2 -145.408H402.809V-135.403H403.2V-145.408ZM403.2 -125.413H402.809V-115.408H403.2V-125.413ZM403.2 -105.418H402.809V-95.413H403.2V-105.418ZM403.2 -85.4226H402.809V-75.4178H403.2V-85.4226ZM403.2 -65.4275H402.809V-55.4229H403.2V-65.4275ZM403.2 -45.4324H402.809V-35.4277H403.2V-45.4324ZM403.2 -25.4373H402.809V-15.4326H403.2V-25.4373ZM403.2 -5.44214H402.809V4.5625H403.2V-5.44214ZM403.2 14.553H402.809V24.5575H403.2V14.553ZM403.2 34.5481H402.809V44.5529H403.2V34.5481ZM403.2 54.5432H402.809V64.548H403.2V54.5432ZM403.2 74.5383H402.809V84.543H403.2V74.5383ZM403.2 94.5334H402.809V104.538H403.2V94.5334ZM403.2 114.529H402.809V124.533H403.2V114.529ZM403.2 134.524H402.809V144.528H403.2V134.524ZM403.2 154.519H402.809V164.523H403.2V154.519ZM403.2 174.514H402.809V184.519H403.2V174.514ZM403.2 194.509H402.809V204.514H403.2V194.509ZM403.2 214.504H402.809V224.509H403.2V214.504ZM403.2 234.499H402.809V244.504H403.2V234.499ZM403.2 254.494H402.809V264.499H403.2V254.494ZM403.2 274.49H402.809V284.494H403.2V274.49ZM403.2 294.485H402.809V304.489H403.2V294.485ZM403.2 314.48H402.809V324.484H403.2V314.48ZM403.2 334.475H402.809V344.479H403.2V334.475ZM403.2 354.47H402.809V364.475H403.2V354.47ZM403.2 374.465H402.809V384.47H403.2V374.465ZM403.2 394.46H402.809V404.465H403.2V394.46ZM403.2 414.455H402.809V424.46H403.2V414.455ZM403.2 434.45H402.809V444.455H403.2V434.45ZM403.2 454.446H402.809V464.45H403.2V454.446ZM403.2 474.441H402.809V484.445H403.2V474.441ZM403.2 494.436H402.809V504.44H403.2V494.436ZM403.2 514.431H402.809V524.436H403.2V514.431ZM403.2 534.426H402.809V544.431H403.2V534.426ZM403.2 554.421H402.809V564.426H403.2V554.421ZM403.2 574.416H402.809V584.421H403.2V574.416ZM403.2 594.411H402.809V604.416H403.2V594.411ZM403.2 614.406H402.809V624.411H403.2V614.406ZM403.2 634.402H402.809V644.406H403.2V634.402ZM403.2 654.397H402.809V664.401H403.2V654.397ZM403.2 674.392H402.809V684.396H403.2V674.392ZM403.2 694.387H402.809V704.392H403.2V694.387ZM403.2 714.382H402.809V724.387H403.2V714.382ZM403.2 734.377H402.809V744.382H403.2V734.377ZM403.2 754.372H402.809V764.377H403.2V754.372ZM403.2 774.367H402.809V784.372H403.2V774.367ZM403.2 794.363H402.809V804.367H403.2V794.363ZM403.2 814.358H402.809V824.362H403.2V814.358ZM403.2 834.353H402.809V844.357H403.2V834.353ZM403.2 854.348H402.809V864.353H403.2V854.348ZM403.2 874.343H402.809V884.348H403.2V874.343ZM403.2 894.338H402.809V904.343H403.2V894.338ZM403.2 914.333H402.809V924.338H403.2V914.333ZM403.2 934.328H402.809V944.333H403.2V934.328ZM403.2 954.323H402.809V964.328H403.2V954.323ZM403.2 974.319H402.809V984.323H403.2V974.319ZM403.2 994.314H402.809V1004.32H403.2V994.314ZM403.2 1014.31H402.809V1024.31H403.2V1014.31ZM403.2 1034.3H402.809V1044.31H403.2V1034.3ZM403.2 1054.3H402.809V1064.3H403.2V1054.3ZM403.2 1074.29H402.809V1084.3H403.2V1074.29ZM403.2 1094.29H402.809V1104.29H403.2V1094.29ZM403.2 1114.28H402.809V1124.29H403.2V1114.28ZM403.2 1134.28H402.809V1144.28H403.2V1134.28ZM403.2 1154.27H402.809V1164.28H403.2V1154.27ZM403.2 1174.27H402.809V1184.27H403.2V1174.27ZM403.2 1194.26H402.809V1204.27H403.2V1194.26ZM403.2 1214.26H402.809V1224.26H403.2V1214.26ZM403.2 1234.26H402.809V1244.26H403.2V1234.26ZM403.2 1254.25H402.809V1264.26H403.2V1254.25ZM403.2 1274.25H402.809V1284.25H403.2V1274.25ZM403.2 1294.24H402.809V1304.25H403.2V1294.24ZM403.2 1314.24H402.809V1324.24H403.2V1314.24ZM403.2 1334.23H402.809V1344.24H403.2V1334.23ZM403.2 1354.23H402.809V1364.23H403.2V1354.23ZM403.2 1374.22H402.809V1384.23H403.2V1374.22ZM403.2 1394.22H402.809V1404.22H403.2V1394.22ZM403.2 1414.21H402.809V1424.22H403.2V1414.21ZM403.2 1434.21H402.809V1444.21H403.2V1434.21ZM403.2 1454.2H402.809V1464.21H403.2V1454.2ZM403.2 1474.2H402.809V1484.2H403.2V1474.2ZM403.2 1494.19H402.809V1504.2H403.2V1494.19ZM403.2 1514.19H402.809V1524.19H403.2V1514.19ZM403.2 1534.18H402.809V1544.19H403.2V1534.18ZM403.2 1554.18H402.809V1564.18H403.2V1554.18ZM403.2 1574.17H402.809V1584.18H403.2V1574.17ZM403.2 1594.17H402.809V1604.17H403.2V1594.17ZM403.2 1614.16H402.809V1624.17H403.2V1614.16ZM403.2 1634.16H402.809V1644.17H403.2V1634.16ZM403.2 1654.15H402.809V1664.16H403.2V1654.15ZM403.2 1674.15H402.809V1684.16H403.2V1674.15ZM403.2 1694.14H402.809V1704.15H403.2V1694.14ZM403.2 1714.14H402.809V1724.15H403.2V1714.14ZM403.2 1734.13H402.809V1744.14H403.2V1734.13ZM403.2 1754.13H402.809V1764.14H403.2V1754.13ZM403.2 1774.12H402.809V1784.13H403.2V1774.12ZM403.2 1794.12H402.809V1804.13H403.2V1794.12ZM403.2 1814.11H402.809V1824.12H403.2V1814.11ZM403.2 1834.11H402.809V1844.12H403.2V1834.11ZM403.2 1854.1H402.809V1864.11H403.2V1854.1ZM403.2 1874.1H402.809V1884.11H403.2V1874.1ZM403.2 1894.09H402.809V1904.1H403.2V1894.09ZM403.2 1914.09H402.809V1924.1H403.2V1914.09ZM403.2 1934.08H402.809V1944.09H403.2V1934.08ZM403.2 1954.08H402.809V1964.09H403.2V1954.08ZM403.2 1974.07H402.809V1984.08H403.2V1974.07ZM403.2 1994.07H402.809V2004.08H403.2V1994.07ZM403.2 2014.06H402.809V2024.07H403.2V2014.06ZM403.2 2034.06H402.809V2044.07H403.2V2034.06ZM403.2 2054.05H402.809V2064.06H403.2V2054.05ZM403.2 2074.05H402.809V2084.06H403.2V2074.05ZM403.2 2094.05H402.809V2104.06H403.2V2094.05ZM403.2 2114.04H402.809V2124.05H403.2V2114.04ZM403.2 2134.04H402.809V2144.05H403.2V2134.04ZM403.2 2154.03H402.809V2164.04H403.2V2154.03ZM403.2 2174.03H402.809V2184.04H403.2V2174.03ZM403.2 2194.02H402.809V2199.03H403.2V2194.02Z" fill="#DCDCDC" fill-opacity="0.7"/>
<path fill-rule="evenodd" clip-rule="evenodd" d="M201.991 -1840H201.6V-1834.99H201.991V-1840ZM201.991 -1825H201.6V-1814.99H201.991V-1825ZM201.991 -1805.01H201.6V-1795H201.991V-1805.01ZM201.991 -1785.01H201.6V-1775H201.991V-1785.01ZM201.991 -1765.02H201.6V-1755.01H201.991V-1765.02ZM201.991 -1745.02H201.6V-1735.01H201.991V-1745.02ZM201.991 -1725.03H201.6V-1715.02H201.991V-1725.03ZM201.991 -1705.03H201.6V-1695.02H201.991V-1705.03ZM201.991 -1685.04H201.6V-1675.03H201.991V-1685.04ZM201.991 -1665.04H201.6V-1655.03H201.991V-1665.04ZM201.991 -1645.05H201.6V-1635.04H201.991V-1645.05ZM201.991 -1625.05H201.6V-1615.04H201.991V-1625.05ZM201.991 -1605.06H201.6V-1595.05H201.991V-1605.06ZM201.991 -1585.06H201.6V-1575.05H201.991V-1585.06ZM201.991 -1565.07H201.6V-1555.06H201.991V-1565.07ZM201.991 -1545.07H201.6V-1535.06H201.991V-1545.07ZM201.991 -1525.08H201.6V-1515.07H201.991V-1525.08ZM201.991 -1505.08H201.6V-1495.07H201.991V-1505.08ZM201.991 -1485.08H201.6V-1475.08H201.991V-1485.08ZM201.991 -1465.09H201.6V-1455.08H201.991V-1465.09ZM201.991 -1445.09H201.6V-1435.09H201.991V-1445.09ZM201.991 -1425.1H201.6V-1415.09H201.991V-1425.1ZM201.991 -1405.1H201.6V-1395.1H201.991V-1405.1ZM201.991 -1385.11H201.6V-1375.1H201.991V-1385.11ZM201.991 -1365.11H201.6V-1355.11H201.991V-1365.11ZM201.991 -1345.12H201.6V-1335.11H201.991V-1345.12ZM201.991 -1325.12H201.6V-1315.12H201.991V-1325.12ZM201.991 -1305.13H201.6V-1295.12H201.991V-1305.13ZM201.991 -1285.13H201.6V-1275.13H201.991V-1285.13ZM201.991 -1265.14H201.6V-1255.13H201.991V-1265.14ZM201.991 -1245.14H201.6V-1235.13H201.991V-1245.14ZM201.991 -1225.15H201.6V-1215.14H201.991V-1225.15ZM201.991 -1205.15H201.6V-1195.14H201.991V-1205.15ZM201.991 -1185.16H201.6V-1175.15H201.991V-1185.16ZM201.991 -1165.16H201.6V-1155.15H201.991V-1165.16ZM201.991 -1145.17H201.6V-1135.16H201.991V-1145.17ZM201.991 -1125.17H201.6V-1115.16H201.991V-1125.17ZM201.991 -1105.18H201.6V-1095.17H201.991V-1105.18ZM201.991 -1085.18H201.6V-1075.17H201.991V-1085.18ZM201.991 -1065.18H201.6V-1055.18H201.991V-1065.18ZM201.991 -1045.19H201.6V-1035.18H201.991V-1045.19ZM201.991 -1025.19H201.6V-1015.19H201.991V-1025.19ZM201.991 -1005.2H201.6V-995.193H201.991V-1005.2ZM201.991 -985.204H201.6V-975.198H201.991V-985.204ZM201.991 -965.209H201.6V-955.203H201.991V-965.209ZM201.991 -945.213H201.6V-935.208H201.991V-945.213ZM201.991 -925.218H201.6V-915.213H201.991V-925.218ZM201.991 -905.223H201.6V-895.218H201.991V-905.223ZM201.991 -885.228H201.6V-875.223H201.991V-885.228ZM201.991 -865.232H201.6V-855.228H201.991V-865.232ZM201.991 -845.237H201.6V-835.233H201.991V-845.237ZM201.991 -825.242H201.6V-815.237H201.991V-825.242ZM201.991 -805.247H201.6V-795.242H201.991V-805.247ZM201.991 -785.252H201.6V-775.247H201.991V-785.252ZM201.991 -765.257H201.6V-755.252H201.991V-765.257ZM201.991 -745.261H201.6V-735.257H201.991V-745.261ZM201.991 -725.266H201.6V-715.262H201.991V-725.266ZM201.991 -705.271H201.6V-695.267H201.991V-705.271ZM201.991 -685.276H201.6V-675.271H201.991V-685.276ZM201.991 -665.281H201.6V-655.276H201.991V-665.281ZM201.991 -645.286H201.6V-635.281H201.991V-645.286ZM201.991 -625.291H201.6V-615.286H201.991V-625.291ZM201.991 -605.296H201.6V-595.291H201.991V-605.296ZM201.991 -585.301H201.6V-575.296H201.991V-585.301ZM201.991 -565.305H201.6V-555.301H201.991V-565.305ZM201.991 -545.31H201.6V-535.306H201.991V-545.31ZM201.991 -525.315H201.6V-515.31H201.991V-525.315ZM201.991 -505.32H201.6V-495.315H201.991V-505.32ZM201.991 -485.325H201.6V-475.32H201.991V-485.325ZM201.991 -465.33H201.6V-455.325H201.991V-465.33ZM201.991 -445.335H201.6V-435.33H201.991V-445.335ZM201.991 -425.34H201.6V-415.335H201.991V-425.34ZM201.991 -405.344H201.6V-395.34H201.991V-405.344ZM201.991 -385.349H201.6V-375.345H201.991V-385.349ZM201.991 -365.354H201.6V-355.35H201.991V-365.354ZM201.991 -345.359H201.6V-335.354H201.991V-345.359ZM201.991 -325.364H201.6V-315.359H201.991V-325.364ZM201.991 -305.369H201.6V-295.364H201.991V-305.369ZM201.991 -285.374H201.6V-275.369H201.991V-285.374ZM201.991 -265.379H201.6V-255.374H201.991V-265.379ZM201.991 -245.384H201.6V-235.379H201.991V-245.384ZM201.991 -225.388H201.6V-215.384H201.991V-225.388ZM201.991 -205.393H201.6V-195.389H201.991V-205.393ZM201.991 -185.398H201.6V-175.394H201.991V-185.398ZM201.991 -165.403H201.6V-155.398H201.991V-165.403ZM201.991 -145.408H201.6V-135.403H201.991V-145.408ZM201.991 -125.413H201.6V-115.408H201.991V-125.413ZM201.991 -105.418H201.6V-95.413H201.991V-105.418ZM201.991 -85.4226H201.6V-75.4178H201.991V-85.4226ZM201.991 -65.4275H201.6V-55.4229H201.991V-65.4275ZM201.991 -45.4324H201.6V-35.4277H201.991V-45.4324ZM201.991 -25.4373H201.6V-15.4326H201.991V-25.4373ZM201.991 -5.44214H201.6V4.5625H201.991V-5.44214ZM201.991 14.553H201.6V24.5575H201.991V14.553ZM201.991 34.5481H201.6V44.5529H201.991V34.5481ZM201.991 54.5432H201.6V64.548H201.991V54.5432ZM201.991 74.5383H201.6V84.543H201.991V74.5383ZM201.991 94.5334H201.6V104.538H201.991V94.5334ZM201.991 114.529H201.6V124.533H201.991V114.529ZM201.991 134.524H201.6V144.528H201.991V134.524ZM201.991 154.519H201.6V164.523H201.991V154.519ZM201.991 174.514H201.6V184.519H201.991V174.514ZM201.991 194.509H201.6V204.514H201.991V194.509ZM201.991 214.504H201.6V224.509H201.991V214.504ZM201.991 234.499H201.6V244.504H201.991V234.499ZM201.991 254.494H201.6V264.499H201.991V254.494ZM201.991 274.49H201.6V284.494H201.991V274.49ZM201.991 294.485H201.6V304.489H201.991V294.485ZM201.991 314.48H201.6V324.484H201.991V314.48ZM201.991 334.475H201.6V344.479H201.991V334.475ZM201.991 354.47H201.6V364.475H201.991V354.47ZM201.991 374.465H201.6V384.47H201.991V374.465ZM201.991 394.46H201.6V404.465H201.991V394.46ZM201.991 414.455H201.6V424.46H201.991V414.455ZM201.991 434.45H201.6V444.455H201.991V434.45ZM201.991 454.446H201.6V464.45H201.991V454.446ZM201.991 474.441H201.6V484.445H201.991V474.441ZM201.991 494.436H201.6V504.44H201.991V494.436ZM201.991 514.431H201.6V524.436H201.991V514.431ZM201.991 534.426H201.6V544.431H201.991V534.426ZM201.991 554.421H201.6V564.426H201.991V554.421ZM201.991 574.416H201.6V584.421H201.991V574.416ZM201.991 594.411H201.6V604.416H201.991V594.411ZM201.991 614.406H201.6V624.411H201.991V614.406ZM201.991 634.402H201.6V644.406H201.991V634.402ZM201.991 654.397H201.6V664.401H201.991V654.397ZM201.991 674.392H201.6V684.396H201.991V674.392ZM201.991 694.387H201.6V704.392H201.991V694.387ZM201.991 714.382H201.6V724.387H201.991V714.382ZM201.991 734.377H201.6V744.382H201.991V734.377ZM201.991 754.372H201.6V764.377H201.991V754.372ZM201.991 774.367H201.6V784.372H201.991V774.367ZM201.991 794.363H201.6V804.367H201.991V794.363ZM201.991 814.358H201.6V824.362H201.991V814.358ZM201.991 834.353H201.6V844.357H201.991V834.353ZM201.991 854.348H201.6V864.353H201.991V854.348ZM201.991 874.343H201.6V884.348H201.991V874.343ZM201.991 894.338H201.6V904.343H201.991V894.338ZM201.991 914.333H201.6V924.338H201.991V914.333ZM201.991 934.328H201.6V944.333H201.991V934.328ZM201.991 954.323H201.6V964.328H201.991V954.323ZM201.991 974.319H201.6V984.323H201.991V974.319ZM201.991 994.314H201.6V1004.32H201.991V994.314ZM201.991 1014.31H201.6V1024.31H201.991V1014.31ZM201.991 1034.3H201.6V1044.31H201.991V1034.3ZM201.991 1054.3H201.6V1064.3H201.991V1054.3ZM201.991 1074.29H201.6V1084.3H201.991V1074.29ZM201.991 1094.29H201.6V1104.29H201.991V1094.29ZM201.991 1114.28H201.6V1124.29H201.991V1114.28ZM201.991 1134.28H201.6V1144.28H201.991V1134.28ZM201.991 1154.27H201.6V1164.28H201.991V1154.27ZM201.991 1174.27H201.6V1184.27H201.991V1174.27ZM201.991 1194.26H201.6V1204.27H201.991V1194.26ZM201.991 1214.26H201.6V1224.26H201.991V1214.26ZM201.991 1234.26H201.6V1244.26H201.991V1234.26ZM201.991 1254.25H201.6V1264.26H201.991V1254.25ZM201.991 1274.25H201.6V1284.25H201.991V1274.25ZM201.991 1294.24H201.6V1304.25H201.991V1294.24ZM201.991 1314.24H201.6V1324.24H201.991V1314.24ZM201.991 1334.23H201.6V1344.24H201.991V1334.23ZM201.991 1354.23H201.6V1364.23H201.991V1354.23ZM201.991 1374.22H201.6V1384.23H201.991V1374.22ZM201.991 1394.22H201.6V1404.22H201.991V1394.22ZM201.991 1414.21H201.6V1424.22H201.991V1414.21ZM201.991 1434.21H201.6V1444.21H201.991V1434.21ZM201.991 1454.2H201.6V1464.21H201.991V1454.2ZM201.991 1474.2H201.6V1484.2H201.991V1474.2ZM201.991 1494.19H201.6V1504.2H201.991V1494.19ZM201.991 1514.19H201.6V1524.19H201.991V1514.19ZM201.991 1534.18H201.6V1544.19H201.991V1534.18ZM201.991 1554.18H201.6V1564.18H201.991V1554.18ZM201.991 1574.17H201.6V1584.18H201.991V1574.17ZM201.991 1594.17H201.6V1604.17H201.991V1594.17ZM201.991 1614.16H201.6V1624.17H201.991V1614.16ZM201.991 1634.16H201.6V1644.17H201.991V1634.16ZM201.991 1654.15H201.6V1664.16H201.991V1654.15ZM201.991 1674.15H201.6V1684.16H201.991V1674.15ZM201.991 1694.14H201.6V1704.15H201.991V1694.14ZM201.991 1714.14H201.6V1724.15H201.991V1714.14ZM201.991 1734.13H201.6V1744.14H201.991V1734.13ZM201.991 1754.13H201.6V1764.14H201.991V1754.13ZM201.991 1774.12H201.6V1784.13H201.991V1774.12ZM201.991 1794.12H201.6V1804.13H201.991V1794.12ZM201.991 1814.11H201.6V1824.12H201.991V1814.11ZM201.991 1834.11H201.6V1844.12H201.991V1834.11ZM201.991 1854.1H201.6V1864.11H201.991V1854.1ZM201.991 1874.1H201.6V1884.11H201.991V1874.1ZM201.991 1894.09H201.6V1904.1H201.991V1894.09ZM201.991 1914.09H201.6V1924.1H201.991V1914.09ZM201.991 1934.08H201.6V1944.09H201.991V1934.08ZM201.991 1954.08H201.6V1964.09H201.991V1954.08ZM201.991 1974.07H201.6V1984.08H201.991V1974.07ZM201.991 1994.07H201.6V2004.08H201.991V1994.07ZM201.991 2014.06H201.6V2024.07H201.991V2014.06ZM201.991 2034.06H201.6V2044.07H201.991V2034.06ZM201.991 2054.05H201.6V2064.06H201.991V2054.05ZM201.991 2074.05H201.6V2084.06H201.991V2074.05ZM201.991 2094.05H201.6V2104.06H201.991V2094.05ZM201.991 2114.04H201.6V2124.05H201.991V2114.04ZM201.991 2134.04H201.6V2144.05H201.991V2134.04ZM201.991 2154.03H201.6V2164.04H201.991V2154.03ZM201.991 2174.03H201.6V2184.04H201.991V2174.03ZM201.991 2194.02H201.6V2199.03H201.991V2194.02Z" fill="#DCDCDC" fill-opacity="0.7"/>
<path fill-rule="evenodd" clip-rule="evenodd" d="M504 -1840H503.609V-1834.99H504V-1840ZM504 -1825H503.609V-1814.99H504V-1825ZM504 -1805.01H503.609V-1795H504V-1805.01ZM504 -1785.01H503.609V-1775H504V-1785.01ZM504 -1765.02H503.609V-1755.01H504V-1765.02ZM504 -1745.02H503.609V-1735.01H504V-1745.02ZM504 -1725.03H503.609V-1715.02H504V-1725.03ZM504 -1705.03H503.609V-1695.02H504V-1705.03ZM504 -1685.04H503.609V-1675.03H504V-1685.04ZM504 -1665.04H503.609V-1655.03H504V-1665.04ZM504 -1645.05H503.609V-1635.04H504V-1645.05ZM504 -1625.05H503.609V-1615.04H504V-1625.05ZM504 -1605.06H503.609V-1595.05H504V-1605.06ZM504 -1585.06H503.609V-1575.05H504V-1585.06ZM504 -1565.07H503.609V-1555.06H504V-1565.07ZM504 -1545.07H503.609V-1535.06H504V-1545.07ZM504 -1525.08H503.609V-1515.07H504V-1525.08ZM504 -1505.08H503.609V-1495.07H504V-1505.08ZM504 -1485.08H503.609V-1475.08H504V-1485.08ZM504 -1465.09H503.609V-1455.08H504V-1465.09ZM504 -1445.09H503.609V-1435.09H504V-1445.09ZM504 -1425.1H503.609V-1415.09H504V-1425.1ZM504 -1405.1H503.609V-1395.1H504V-1405.1ZM504 -1385.11H503.609V-1375.1H504V-1385.11ZM504 -1365.11H503.609V-1355.11H504V-1365.11ZM504 -1345.12H503.609V-1335.11H504V-1345.12ZM504 -1325.12H503.609V-1315.12H504V-1325.12ZM504 -1305.13H503.609V-1295.12H504V-1305.13ZM504 -1285.13H503.609V-1275.13H504V-1285.13ZM504 -1265.14H503.609V-1255.13H504V-1265.14ZM504 -1245.14H503.609V-1235.13H504V-1245.14ZM504 -1225.15H503.609V-1215.14H504V-1225.15ZM504 -1205.15H503.609V-1195.14H504V-1205.15ZM504 -1185.16H503.609V-1175.15H504V-1185.16ZM504 -1165.16H503.609V-1155.15H504V-1165.16ZM504 -1145.17H503.609V-1135.16H504V-1145.17ZM504 -1125.17H503.609V-1115.16H504V-1125.17ZM504 -1105.18H503.609V-1095.17H504V-1105.18ZM504 -1085.18H503.609V-1075.17H504V-1085.18ZM504 -1065.18H503.609V-1055.18H504V-1065.18ZM504 -1045.19H503.609V-1035.18H504V-1045.19ZM504 -1025.19H503.609V-1015.19H504V-1025.19ZM504 -1005.2H503.609V-995.193H504V-1005.2ZM504 -985.204H503.609V-975.198H504V-985.204ZM504 -965.209H503.609V-955.203H504V-965.209ZM504 -945.213H503.609V-935.208H504V-945.213ZM504 -925.218H503.609V-915.213H504V-925.218ZM504 -905.223H503.609V-895.218H504V-905.223ZM504 -885.228H503.609V-875.223H504V-885.228ZM504 -865.232H503.609V-855.228H504V-865.232ZM504 -845.237H503.609V-835.233H504V-845.237ZM504 -825.242H503.609V-815.237H504V-825.242ZM504 -805.247H503.609V-795.242H504V-805.247ZM504 -785.252H503.609V-775.247H504V-785.252ZM504 -765.257H503.609V-755.252H504V-765.257ZM504 -745.261H503.609V-735.257H504V-745.261ZM504 -725.266H503.609V-715.262H504V-725.266ZM504 -705.271H503.609V-695.267H504V-705.271ZM504 -685.276H503.609V-675.271H504V-685.276ZM504 -665.281H503.609V-655.276H504V-665.281ZM504 -645.286H503.609V-635.281H504V-645.286ZM504 -625.291H503.609V-615.286H504V-625.291ZM504 -605.296H503.609V-595.291H504V-605.296ZM504 -585.301H503.609V-575.296H504V-585.301ZM504 -565.305H503.609V-555.301H504V-565.305ZM504 -545.31H503.609V-535.306H504V-545.31ZM504 -525.315H503.609V-515.31H504V-525.315ZM504 -505.32H503.609V-495.315H504V-505.32ZM504 -485.325H503.609V-475.32H504V-485.325ZM504 -465.33H503.609V-455.325H504V-465.33ZM504 -445.335H503.609V-435.33H504V-445.335ZM504 -425.34H503.609V-415.335H504V-425.34ZM504 -405.344H503.609V-395.34H504V-405.344ZM504 -385.349H503.609V-375.345H504V-385.349ZM504 -365.354H503.609V-355.35H504V-365.354ZM504 -345.359H503.609V-335.354H504V-345.359ZM504 -325.364H503.609V-315.359H504V-325.364ZM504 -305.369H503.609V-295.364H504V-305.369ZM504 -285.374H503.609V-275.369H504V-285.374ZM504 -265.379H503.609V-255.374H504V-265.379ZM504 -245.384H503.609V-235.379H504V-245.384ZM504 -225.388H503.609V-215.384H504V-225.388ZM504 -205.393H503.609V-195.389H504V-205.393ZM504 -185.398H503.609V-175.394H504V-185.398ZM504 -165.403H503.609V-155.398H504V-165.403ZM504 -145.408H503.609V-135.403H504V-145.408ZM504 -125.413H503.609V-115.408H504V-125.413ZM504 -105.418H503.609V-95.413H504V-105.418ZM504 -85.4226H503.609V-75.4178H504V-85.4226ZM504 -65.4275H503.609V-55.4229H504V-65.4275ZM504 -45.4324H503.609V-35.4277H504V-45.4324ZM504 -25.4373H503.609V-15.4326H504V-25.4373ZM504 -5.44214H503.609V4.5625H504V-5.44214ZM504 14.553H503.609V24.5575H504V14.553ZM504 34.5481H503.609V44.5529H504V34.5481ZM504 54.5432H503.609V64.548H504V54.5432ZM504 74.5383H503.609V84.543H504V74.5383ZM504 94.5334H503.609V104.538H504V94.5334ZM504 114.529H503.609V124.533H504V114.529ZM504 134.524H503.609V144.528H504V134.524ZM504 154.519H503.609V164.523H504V154.519ZM504 174.514H503.609V184.519H504V174.514ZM504 194.509H503.609V204.514H504V194.509ZM504 214.504H503.609V224.509H504V214.504ZM504 234.499H503.609V244.504H504V234.499ZM504 254.494H503.609V264.499H504V254.494ZM504 274.49H503.609V284.494H504V274.49ZM504 294.485H503.609V304.489H504V294.485ZM504 314.48H503.609V324.484H504V314.48ZM504 334.475H503.609V344.479H504V334.475ZM504 354.47H503.609V364.475H504V354.47ZM504 374.465H503.609V384.47H504V374.465ZM504 394.46H503.609V404.465H504V394.46ZM504 414.455H503.609V424.46H504V414.455ZM504 434.45H503.609V444.455H504V434.45ZM504 454.446H503.609V464.45H504V454.446ZM504 474.441H503.609V484.445H504V474.441ZM504 494.436H503.609V504.44H504V494.436ZM504 514.431H503.609V524.436H504V514.431ZM504 534.426H503.609V544.431H504V534.426ZM504 554.421H503.609V564.426H504V554.421ZM504 574.416H503.609V584.421H504V574.416ZM504 594.411H503.609V604.416H504V594.411ZM504 614.406H503.609V624.411H504V614.406ZM504 634.402H503.609V644.406H504V634.402ZM504 654.397H503.609V664.401H504V654.397ZM504 674.392H503.609V684.396H504V674.392ZM504 694.387H503.609V704.392H504V694.387ZM504 714.382H503.609V724.387H504V714.382ZM504 734.377H503.609V744.382H504V734.377ZM504 754.372H503.609V764.377H504V754.372ZM504 774.367H503.609V784.372H504V774.367ZM504 794.363H503.609V804.367H504V794.363ZM504 814.358H503.609V824.362H504V814.358ZM504 834.353H503.609V844.357H504V834.353ZM504 854.348H503.609V864.353H504V854.348ZM504 874.343H503.609V884.348H504V874.343ZM504 894.338H503.609V904.343H504V894.338ZM504 914.333H503.609V924.338H504V914.333ZM504 934.328H503.609V944.333H504V934.328ZM504 954.323H503.609V964.328H504V954.323ZM504 974.319H503.609V984.323H504V974.319ZM504 994.314H503.609V1004.32H504V994.314ZM504 1014.31H503.609V1024.31H504V1014.31ZM504 1034.3H503.609V1044.31H504V1034.3ZM504 1054.3H503.609V1064.3H504V1054.3ZM504 1074.29H503.609V1084.3H504V1074.29ZM504 1094.29H503.609V1104.29H504V1094.29ZM504 1114.28H503.609V1124.29H504V1114.28ZM504 1134.28H503.609V1144.28H504V1134.28ZM504 1154.27H503.609V1164.28H504V1154.27ZM504 1174.27H503.609V1184.27H504V1174.27ZM504 1194.26H503.609V1204.27H504V1194.26ZM504 1214.26H503.609V1224.26H504V1214.26ZM504 1234.26H503.609V1244.26H504V1234.26ZM504 1254.25H503.609V1264.26H504V1254.25ZM504 1274.25H503.609V1284.25H504V1274.25ZM504 1294.24H503.609V1304.25H504V1294.24ZM504 1314.24H503.609V1324.24H504V1314.24ZM504 1334.23H503.609V1344.24H504V1334.23ZM504 1354.23H503.609V1364.23H504V1354.23ZM504 1374.22H503.609V1384.23H504V1374.22ZM504 1394.22H503.609V1404.22H504V1394.22ZM504 1414.21H503.609V1424.22H504V1414.21ZM504 1434.21H503.609V1444.21H504V1434.21ZM504 1454.2H503.609V1464.21H504V1454.2ZM504 1474.2H503.609V1484.2H504V1474.2ZM504 1494.19H503.609V1504.2H504V1494.19ZM504 1514.19H503.609V1524.19H504V1514.19ZM504 1534.18H503.609V1544.19H504V1534.18ZM504 1554.18H503.609V1564.18H504V1554.18ZM504 1574.17H503.609V1584.18H504V1574.17ZM504 1594.17H503.609V1604.17H504V1594.17ZM504 1614.16H503.609V1624.17H504V1614.16ZM504 1634.16H503.609V1644.17H504V1634.16ZM504 1654.15H503.609V1664.16H504V1654.15ZM504 1674.15H503.609V1684.16H504V1674.15ZM504 1694.14H503.609V1704.15H504V1694.14ZM504 1714.14H503.609V1724.15H504V1714.14ZM504 1734.13H503.609V1744.14H504V1734.13ZM504 1754.13H503.609V1764.14H504V1754.13ZM504 1774.12H503.609V1784.13H504V1774.12ZM504 1794.12H503.609V1804.13H504V1794.12ZM504 1814.11H503.609V1824.12H504V1814.11ZM504 1834.11H503.609V1844.12H504V1834.11ZM504 1854.1H503.609V1864.11H504V1854.1ZM504 1874.1H503.609V1884.11H504V1874.1ZM504 1894.09H503.609V1904.1H504V1894.09ZM504 1914.09H503.609V1924.1H504V1914.09ZM504 1934.08H503.609V1944.09H504V1934.08ZM504 1954.08H503.609V1964.09H504V1954.08ZM504 1974.07H503.609V1984.08H504V1974.07ZM504 1994.07H503.609V2004.08H504V1994.07ZM504 2014.06H503.609V2024.07H504V2014.06ZM504 2034.06H503.609V2044.07H504V2034.06ZM504 2054.05H503.609V2064.06H504V2054.05ZM504 2074.05H503.609V2084.06H504V2074.05ZM504 2094.05H503.609V2104.06H504V2094.05ZM504 2114.04H503.609V2124.05H504V2114.04ZM504 2134.04H503.609V2144.05H504V2134.04ZM504 2154.03H503.609V2164.04H504V2154.03ZM504 2174.03H503.609V2184.04H504V2174.03ZM504 2194.02H503.609V2199.03H504V2194.02Z" fill="#DCDCDC" fill-opacity="0.7"/>
<path fill-rule="evenodd" clip-rule="evenodd" d="M302.791 -1840H302.4V-1834.99H302.791V-1840ZM302.791 -1825H302.4V-1814.99H302.791V-1825ZM302.791 -1805.01H302.4V-1795H302.791V-1805.01ZM302.791 -1785.01H302.4V-1775H302.791V-1785.01ZM302.791 -1765.02H302.4V-1755.01H302.791V-1765.02ZM302.791 -1745.02H302.4V-1735.01H302.791V-1745.02ZM302.791 -1725.03H302.4V-1715.02H302.791V-1725.03ZM302.791 -1705.03H302.4V-1695.02H302.791V-1705.03ZM302.791 -1685.04H302.4V-1675.03H302.791V-1685.04ZM302.791 -1665.04H302.4V-1655.03H302.791V-1665.04ZM302.791 -1645.05H302.4V-1635.04H302.791V-1645.05ZM302.791 -1625.05H302.4V-1615.04H302.791V-1625.05ZM302.791 -1605.06H302.4V-1595.05H302.791V-1605.06ZM302.791 -1585.06H302.4V-1575.05H302.791V-1585.06ZM302.791 -1565.07H302.4V-1555.06H302.791V-1565.07ZM302.791 -1545.07H302.4V-1535.06H302.791V-1545.07ZM302.791 -1525.08H302.4V-1515.07H302.791V-1525.08ZM302.791 -1505.08H302.4V-1495.07H302.791V-1505.08ZM302.791 -1485.08H302.4V-1475.08H302.791V-1485.08ZM302.791 -1465.09H302.4V-1455.08H302.791V-1465.09ZM302.791 -1445.09H302.4V-1435.09H302.791V-1445.09ZM302.791 -1425.1H302.4V-1415.09H302.791V-1425.1ZM302.791 -1405.1H302.4V-1395.1H302.791V-1405.1ZM302.791 -1385.11H302.4V-1375.1H302.791V-1385.11ZM302.791 -1365.11H302.4V-1355.11H302.791V-1365.11ZM302.791 -1345.12H302.4V-1335.11H302.791V-1345.12ZM302.791 -1325.12H302.4V-1315.12H302.791V-1325.12ZM302.791 -1305.13H302.4V-1295.12H302.791V-1305.13ZM302.791 -1285.13H302.4V-1275.13H302.791V-1285.13ZM302.791 -1265.14H302.4V-1255.13H302.791V-1265.14ZM302.791 -1245.14H302.4V-1235.13H302.791V-1245.14ZM302.791 -1225.15H302.4V-1215.14H302.791V-1225.15ZM302.791 -1205.15H302.4V-1195.14H302.791V-1205.15ZM302.791 -1185.16H302.4V-1175.15H302.791V-1185.16ZM302.791 -1165.16H302.4V-1155.15H302.791V-1165.16ZM302.791 -1145.17H302.4V-1135.16H302.791V-1145.17ZM302.791 -1125.17H302.4V-1115.16H302.791V-1125.17ZM302.791 -1105.18H302.4V-1095.17H302.791V-1105.18ZM302.791 -1085.18H302.4V-1075.17H302.791V-1085.18ZM302.791 -1065.18H302.4V-1055.18H302.791V-1065.18ZM302.791 -1045.19H302.4V-1035.18H302.791V-1045.19ZM302.791 -1025.19H302.4V-1015.19H302.791V-1025.19ZM302.791 -1005.2H302.4V-995.193H302.791V-1005.2ZM302.791 -985.204H302.4V-975.198H302.791V-985.204ZM302.791 -965.209H302.4V-955.203H302.791V-965.209ZM302.791 -945.213H302.4V-935.208H302.791V-945.213ZM302.791 -925.218H302.4V-915.213H302.791V-925.218ZM302.791 -905.223H302.4V-895.218H302.791V-905.223ZM302.791 -885.228H302.4V-875.223H302.791V-885.228ZM302.791 -865.232H302.4V-855.228H302.791V-865.232ZM302.791 -845.237H302.4V-835.233H302.791V-845.237ZM302.791 -825.242H302.4V-815.237H302.791V-825.242ZM302.791 -805.247H302.4V-795.242H302.791V-805.247ZM302.791 -785.252H302.4V-775.247H302.791V-785.252ZM302.791 -765.257H302.4V-755.252H302.791V-765.257ZM302.791 -745.261H302.4V-735.257H302.791V-745.261ZM302.791 -725.266H302.4V-715.262H302.791V-725.266ZM302.791 -705.271H302.4V-695.267H302.791V-705.271ZM302.791 -685.276H302.4V-675.271H302.791V-685.276ZM302.791 -665.281H302.4V-655.276H302.791V-665.281ZM302.791 -645.286H302.4V-635.281H302.791V-645.286ZM302.791 -625.291H302.4V-615.286H302.791V-625.291ZM302.791 -605.296H302.4V-595.291H302.791V-605.296ZM302.791 -585.301H302.4V-575.296H302.791V-585.301ZM302.791 -565.305H302.4V-555.301H302.791V-565.305ZM302.791 -545.31H302.4V-535.306H302.791V-545.31ZM302.791 -525.315H302.4V-515.31H302.791V-525.315ZM302.791 -505.32H302.4V-495.315H302.791V-505.32ZM302.791 -485.325H302.4V-475.32H302.791V-485.325ZM302.791 -465.33H302.4V-455.325H302.791V-465.33ZM302.791 -445.335H302.4V-435.33H302.791V-445.335ZM302.791 -425.34H302.4V-415.335H302.791V-425.34ZM302.791 -405.344H302.4V-395.34H302.791V-405.344ZM302.791 -385.349H302.4V-375.345H302.791V-385.349ZM302.791 -365.354H302.4V-355.35H302.791V-365.354ZM302.791 -345.359H302.4V-335.354H302.791V-345.359ZM302.791 -325.364H302.4V-315.359H302.791V-325.364ZM302.791 -305.369H302.4V-295.364H302.791V-305.369ZM302.791 -285.374H302.4V-275.369H302.791V-285.374ZM302.791 -265.379H302.4V-255.374H302.791V-265.379ZM302.791 -245.384H302.4V-235.379H302.791V-245.384ZM302.791 -225.388H302.4V-215.384H302.791V-225.388ZM302.791 -205.393H302.4V-195.389H302.791V-205.393ZM302.791 -185.398H302.4V-175.394H302.791V-185.398ZM302.791 -165.403H302.4V-155.398H302.791V-165.403ZM302.791 -145.408H302.4V-135.403H302.791V-145.408ZM302.791 -125.413H302.4V-115.408H302.791V-125.413ZM302.791 -105.418H302.4V-95.413H302.791V-105.418ZM302.791 -85.4226H302.4V-75.4178H302.791V-85.4226ZM302.791 -65.4275H302.4V-55.4229H302.791V-65.4275ZM302.791 -45.4324H302.4V-35.4277H302.791V-45.4324ZM302.791 -25.4373H302.4V-15.4326H302.791V-25.4373ZM302.791 -5.44214H302.4V4.5625H302.791V-5.44214ZM302.791 14.553H302.4V24.5575H302.791V14.553ZM302.791 34.5481H302.4V44.5529H302.791V34.5481ZM302.791 54.5432H302.4V64.548H302.791V54.5432ZM302.791 74.5383H302.4V84.543H302.791V74.5383ZM302.791 94.5334H302.4V104.538H302.791V94.5334ZM302.791 114.529H302.4V124.533H302.791V114.529ZM302.791 134.524H302.4V144.528H302.791V134.524ZM302.791 154.519H302.4V164.523H302.791V154.519ZM302.791 174.514H302.4V184.519H302.791V174.514ZM302.791 194.509H302.4V204.514H302.791V194.509ZM302.791 214.504H302.4V224.509H302.791V214.504ZM302.791 234.499H302.4V244.504H302.791V234.499ZM302.791 254.494H302.4V264.499H302.791V254.494ZM302.791 274.49H302.4V284.494H302.791V274.49ZM302.791 294.485H302.4V304.489H302.791V294.485ZM302.791 314.48H302.4V324.484H302.791V314.48ZM302.791 334.475H302.4V344.479H302.791V334.475ZM302.791 354.47H302.4V364.475H302.791V354.47ZM302.791 374.465H302.4V384.47H302.791V374.465ZM302.791 394.46H302.4V404.465H302.791V394.46ZM302.791 414.455H302.4V424.46H302.791V414.455ZM302.791 434.45H302.4V444.455H302.791V434.45ZM302.791 454.446H302.4V464.45H302.791V454.446ZM302.791 474.441H302.4V484.445H302.791V474.441ZM302.791 494.436H302.4V504.44H302.791V494.436ZM302.791 514.431H302.4V524.436H302.791V514.431ZM302.791 534.426H302.4V544.431H302.791V534.426ZM302.791 554.421H302.4V564.426H302.791V554.421ZM302.791 574.416H302.4V584.421H302.791V574.416ZM302.791 594.411H302.4V604.416H302.791V594.411ZM302.791 614.406H302.4V624.411H302.791V614.406ZM302.791 634.402H302.4V644.406H302.791V634.402ZM302.791 654.397H302.4V664.401H302.791V654.397ZM302.791 674.392H302.4V684.396H302.791V674.392ZM302.791 694.387H302.4V704.392H302.791V694.387ZM302.791 714.382H302.4V724.387H302.791V714.382ZM302.791 734.377H302.4V744.382H302.791V734.377ZM302.791 754.372H302.4V764.377H302.791V754.372ZM302.791 774.367H302.4V784.372H302.791V774.367ZM302.791 794.363H302.4V804.367H302.791V794.363ZM302.791 814.358H302.4V824.362H302.791V814.358ZM302.791 834.353H302.4V844.357H302.791V834.353ZM302.791 854.348H302.4V864.353H302.791V854.348ZM302.791 874.343H302.4V884.348H302.791V874.343ZM302.791 894.338H302.4V904.343H302.791V894.338ZM302.791 914.333H302.4V924.338H302.791V914.333ZM302.791 934.328H302.4V944.333H302.791V934.328ZM302.791 954.323H302.4V964.328H302.791V954.323ZM302.791 974.319H302.4V984.323H302.791V974.319ZM302.791 994.314H302.4V1004.32H302.791V994.314ZM302.791 1014.31H302.4V1024.31H302.791V1014.31ZM302.791 1034.3H302.4V1044.31H302.791V1034.3ZM302.791 1054.3H302.4V1064.3H302.791V1054.3ZM302.791 1074.29H302.4V1084.3H302.791V1074.29ZM302.791 1094.29H302.4V1104.29H302.791V1094.29ZM302.791 1114.28H302.4V1124.29H302.791V1114.28ZM302.791 1134.28H302.4V1144.28H302.791V1134.28ZM302.791 1154.27H302.4V1164.28H302.791V1154.27ZM302.791 1174.27H302.4V1184.27H302.791V1174.27ZM302.791 1194.26H302.4V1204.27H302.791V1194.26ZM302.791 1214.26H302.4V1224.26H302.791V1214.26ZM302.791 1234.26H302.4V1244.26H302.791V1234.26ZM302.791 1254.25H302.4V1264.26H302.791V1254.25ZM302.791 1274.25H302.4V1284.25H302.791V1274.25ZM302.791 1294.24H302.4V1304.25H302.791V1294.24ZM302.791 1314.24H302.4V1324.24H302.791V1314.24ZM302.791 1334.23H302.4V1344.24H302.791V1334.23ZM302.791 1354.23H302.4V1364.23H302.791V1354.23ZM302.791 1374.22H302.4V1384.23H302.791V1374.22ZM302.791 1394.22H302.4V1404.22H302.791V1394.22ZM302.791 1414.21H302.4V1424.22H302.791V1414.21ZM302.791 1434.21H302.4V1444.21H302.791V1434.21ZM302.791 1454.2H302.4V1464.21H302.791V1454.2ZM302.791 1474.2H302.4V1484.2H302.791V1474.2ZM302.791 1494.19H302.4V1504.2H302.791V1494.19ZM302.791 1514.19H302.4V1524.19H302.791V1514.19ZM302.791 1534.18H302.4V1544.19H302.791V1534.18ZM302.791 1554.18H302.4V1564.18H302.791V1554.18ZM302.791 1574.17H302.4V1584.18H302.791V1574.17ZM302.791 1594.17H302.4V1604.17H302.791V1594.17ZM302.791 1614.16H302.4V1624.17H302.791V1614.16ZM302.791 1634.16H302.4V1644.17H302.791V1634.16ZM302.791 1654.15H302.4V1664.16H302.791V1654.15ZM302.791 1674.15H302.4V1684.16H302.791V1674.15ZM302.791 1694.14H302.4V1704.15H302.791V1694.14ZM302.791 1714.14H302.4V1724.15H302.791V1714.14ZM302.791 1734.13H302.4V1744.14H302.791V1734.13ZM302.791 1754.13H302.4V1764.14H302.791V1754.13ZM302.791 1774.12H302.4V1784.13H302.791V1774.12ZM302.791 1794.12H302.4V1804.13H302.791V1794.12ZM302.791 1814.11H302.4V1824.12H302.791V1814.11ZM302.791 1834.11H302.4V1844.12H302.791V1834.11ZM302.791 1854.1H302.4V1864.11H302.791V1854.1ZM302.791 1874.1H302.4V1884.11H302.791V1874.1ZM302.791 1894.09H302.4V1904.1H302.791V1894.09ZM302.791 1914.09H302.4V1924.1H302.791V1914.09ZM302.791 1934.08H302.4V1944.09H302.791V1934.08ZM302.791 1954.08H302.4V1964.09H302.791V1954.08ZM302.791 1974.07H302.4V1984.08H302.791V1974.07ZM302.791 1994.07H302.4V2004.08H302.791V1994.07ZM302.791 2014.06H302.4V2024.07H302.791V2014.06ZM302.791 2034.06H302.4V2044.07H302.791V2034.06ZM302.791 2054.05H302.4V2064.06H302.791V2054.05ZM302.791 2074.05H302.4V2084.06H302.791V2074.05ZM302.791 2094.05H302.4V2104.06H302.791V2094.05ZM302.791 2114.04H302.4V2124.05H302.791V2114.04ZM302.791 2134.04H302.4V2144.05H302.791V2134.04ZM302.791 2154.03H302.4V2164.04H302.791V2154.03ZM302.791 2174.03H302.4V2184.04H302.791V2174.03ZM302.791 2194.02H302.4V2199.03H302.791V2194.02Z" fill="#DCDCDC" fill-opacity="0.7"/>
</g>
<defs>
<clipPath id="clip0">
<rect width="504" height="20" fill="white"/>
</clipPath>
</defs>
</svg>
