<svg width="516" height="19" viewBox="0 0 516 19" fill="none" xmlns="http://www.w3.org/2000/svg">
<g clip-path="url(#clip0)">
<path fill-rule="evenodd" clip-rule="evenodd" d="M-387 750V745.066L-386 745.065V750H-387ZM-386 725.328H-387V735.197L-386 735.197V725.328ZM-387 715.461H-386V705.592L-387 705.592V715.461ZM-387 695.724H-386V685.855L-387 685.855V695.724ZM-387 675.987H-386V666.118L-387 666.118V675.987ZM-387 656.25H-386V646.382L-387 646.381V656.25ZM-387 636.513H-386V626.644L-387 626.645V636.513ZM-387 616.776L-386 616.776V606.907L-387 606.908V616.776ZM-387 597.039L-386 597.039V587.171L-387 587.171V597.039ZM-387 577.303L-386 577.302V567.434L-387 567.434V577.303ZM-387 557.566L-386 557.565V547.697L-387 547.697V557.566ZM-387 537.829L-386 537.829V527.96L-387 527.961V537.829ZM-387 518.092L-386 518.092V508.224L-387 508.223V518.092ZM-387 498.355H-386V488.487L-387 488.487V498.355ZM-387 478.618H-386V468.75L-387 468.75V478.618ZM-387 458.882H-386V449.013L-387 449.013V458.882ZM-387 439.145H-386V429.276L-387 429.276V439.145ZM-387 419.408H-386V409.54L-387 409.539V419.408ZM-387 399.671L-386 399.671V389.803L-387 389.802V399.671ZM-387 379.934L-386 379.934V370.066L-387 370.066V379.934ZM-387 360.198H-386V350.329L-387 350.329V360.198ZM-387 340.461H-386V330.592L-387 330.592V340.461ZM-387 320.724H-386V310.855L-387 310.855V320.724ZM-387 300.987H-386V291.119L-387 291.118V300.987ZM-387 281.25L-386 281.25V271.382L-387 271.382V281.25ZM-387 261.513L-386 261.513V251.645L-387 251.645V261.513ZM-387 241.777H-386V231.908L-387 231.908V241.777ZM-387 222.04H-386V212.171L-387 212.171V222.04ZM-387 202.303H-386V192.435L-387 192.434V202.303ZM-387 182.566H-386V172.698L-387 172.697V182.566ZM-387 162.829H-386V152.961L-387 152.961V162.829ZM-387 143.093H-386V133.224L-387 133.224V143.093ZM-387 123.356H-386V113.487L-387 113.487V123.356ZM-387 103.619H-386V93.7505L-387 93.75V103.619ZM-387 83.8821H-386V74.0137L-387 74.0132V83.8821ZM-387 64.1452H-386V54.2769L-387 54.2763V64.1452ZM-387 44.4084H-386V34.5401L-387 34.5395V44.4084ZM-387 24.6716H-386V14.8032L-387 14.8026V24.6716ZM-387 4.93482H-386V0H-387V4.93482Z" fill="#232323"/>
<path fill-rule="evenodd" clip-rule="evenodd" d="M-129 750V745.066L-128 745.065V750H-129ZM-128 725.328H-129V735.197L-128 735.197V725.328ZM-129 715.461H-128V705.592L-129 705.592V715.461ZM-129 695.724H-128V685.855L-129 685.855V695.724ZM-129 675.987H-128V666.118L-129 666.118V675.987ZM-129 656.25H-128V646.382L-129 646.381V656.25ZM-129 636.513H-128V626.644L-129 626.645V636.513ZM-129 616.776L-128 616.776V606.907L-129 606.908V616.776ZM-129 597.039L-128 597.039V587.171L-129 587.171V597.039ZM-129 577.303L-128 577.302V567.434L-129 567.434V577.303ZM-129 557.566L-128 557.565V547.697L-129 547.697V557.566ZM-129 537.829L-128 537.829V527.96L-129 527.961V537.829ZM-129 518.092L-128 518.092V508.224L-129 508.223V518.092ZM-129 498.355H-128V488.487L-129 488.487V498.355ZM-129 478.618H-128V468.75L-129 468.75V478.618ZM-129 458.882H-128V449.013L-129 449.013V458.882ZM-129 439.145H-128V429.276L-129 429.276V439.145ZM-129 419.408H-128V409.54L-129 409.539V419.408ZM-129 399.671L-128 399.671V389.803L-129 389.802V399.671ZM-129 379.934L-128 379.934V370.066L-129 370.066V379.934ZM-129 360.198H-128V350.329L-129 350.329V360.198ZM-129 340.461H-128V330.592L-129 330.592V340.461ZM-129 320.724H-128V310.855L-129 310.855V320.724ZM-129 300.987H-128V291.119L-129 291.118V300.987ZM-129 281.25L-128 281.25V271.382L-129 271.382V281.25ZM-129 261.513L-128 261.513V251.645L-129 251.645V261.513ZM-129 241.777H-128V231.908L-129 231.908V241.777ZM-129 222.04H-128V212.171L-129 212.171V222.04ZM-129 202.303H-128V192.435L-129 192.434V202.303ZM-129 182.566H-128V172.698L-129 172.697V182.566ZM-129 162.829H-128V152.961L-129 152.961V162.829ZM-129 143.093H-128V133.224L-129 133.224V143.093ZM-129 123.356H-128V113.487L-129 113.487V123.356ZM-129 103.619H-128V93.7505L-129 93.75V103.619ZM-129 83.8821H-128V74.0137L-129 74.0132V83.8821ZM-129 64.1452H-128V54.2769L-129 54.2763V64.1452ZM-129 44.4084H-128V34.5401L-129 34.5395V44.4084ZM-129 24.6716H-128V14.8032L-129 14.8026V24.6716ZM-129 4.93482H-128V0H-129V4.93482Z" fill="#232323"/>
<path fill-rule="evenodd" clip-rule="evenodd" d="M644 750V745.066L645 745.065V750H644ZM645 725.328H644V735.197L645 735.197V725.328ZM644 715.461H645V705.592L644 705.592V715.461ZM644 695.724H645V685.855L644 685.855V695.724ZM644 675.987H645V666.118L644 666.118V675.987ZM644 656.25H645V646.382L644 646.381V656.25ZM644 636.513H645V626.644L644 626.645V636.513ZM644 616.776L645 616.776V606.907L644 606.908V616.776ZM644 597.039L645 597.039V587.171L644 587.171V597.039ZM644 577.303L645 577.302V567.434L644 567.434V577.303ZM644 557.566L645 557.565V547.697L644 547.697V557.566ZM644 537.829L645 537.829V527.96L644 527.961V537.829ZM644 518.092L645 518.092V508.224L644 508.223V518.092ZM644 498.355H645V488.487L644 488.487V498.355ZM644 478.618H645V468.75L644 468.75V478.618ZM644 458.882H645V449.013L644 449.013V458.882ZM644 439.145H645V429.276L644 429.276V439.145ZM644 419.408H645V409.54L644 409.539V419.408ZM644 399.671L645 399.671V389.803L644 389.802V399.671ZM644 379.934L645 379.934V370.066L644 370.066V379.934ZM644 360.198H645V350.329L644 350.329V360.198ZM644 340.461H645V330.592L644 330.592V340.461ZM644 320.724H645V310.855L644 310.855V320.724ZM644 300.987H645V291.119L644 291.118V300.987ZM644 281.25L645 281.25V271.382L644 271.382V281.25ZM644 261.513L645 261.513V251.645L644 251.645V261.513ZM644 241.777H645V231.908L644 231.908V241.777ZM644 222.04H645V212.171L644 212.171V222.04ZM644 202.303H645V192.435L644 192.434V202.303ZM644 182.566H645V172.698L644 172.697V182.566ZM644 162.829H645V152.961L644 152.961V162.829ZM644 143.093H645V133.224L644 133.224V143.093ZM644 123.356H645V113.487L644 113.487V123.356ZM644 103.619H645V93.7505L644 93.75V103.619ZM644 83.8821H645V74.0137L644 74.0132V83.8821ZM644 64.1452H645V54.2769L644 54.2763V64.1452ZM644 44.4084H645V34.5401L644 34.5395V44.4084ZM644 24.6716H645V14.8032L644 14.8026V24.6716ZM644 4.93482H645V0H644V4.93482Z" fill="#232323"/>
<path fill-rule="evenodd" clip-rule="evenodd" d="M129 750V745.066L130 745.065V750H129ZM130 725.328H129V735.197L130 735.197V725.328ZM129 715.461H130V705.592L129 705.592V715.461ZM129 695.724H130V685.855L129 685.855V695.724ZM129 675.987H130V666.118L129 666.118V675.987ZM129 656.25H130V646.382L129 646.381V656.25ZM129 636.513H130V626.644L129 626.645V636.513ZM129 616.776L130 616.776V606.907L129 606.908V616.776ZM129 597.039L130 597.039V587.171L129 587.171V597.039ZM129 577.303L130 577.302V567.434L129 567.434V577.303ZM129 557.566L130 557.565V547.697L129 547.697V557.566ZM129 537.829L130 537.829V527.96L129 527.961V537.829ZM129 518.092L130 518.092V508.224L129 508.223V518.092ZM129 498.355H130V488.487L129 488.487V498.355ZM129 478.618H130V468.75L129 468.75V478.618ZM129 458.882H130V449.013L129 449.013V458.882ZM129 439.145H130V429.276L129 429.276V439.145ZM129 419.408H130V409.54L129 409.539V419.408ZM129 399.671L130 399.671V389.803L129 389.802V399.671ZM129 379.934L130 379.934V370.066L129 370.066V379.934ZM129 360.198H130V350.329L129 350.329V360.198ZM129 340.461H130V330.592L129 330.592V340.461ZM129 320.724H130V310.855L129 310.855V320.724ZM129 300.987H130V291.119L129 291.118V300.987ZM129 281.25L130 281.25V271.382L129 271.382V281.25ZM129 261.513L130 261.513V251.645L129 251.645V261.513ZM129 241.777H130V231.908L129 231.908V241.777ZM129 222.04H130V212.171L129 212.171V222.04ZM129 202.303H130V192.435L129 192.434V202.303ZM129 182.566H130V172.698L129 172.697V182.566ZM129 162.829H130V152.961L129 152.961V162.829ZM129 143.093H130V133.224L129 133.224V143.093ZM129 123.356H130V113.487L129 113.487V123.356ZM129 103.619H130V93.7505L129 93.75V103.619ZM129 83.8821H130V74.0137L129 74.0132V83.8821ZM129 64.1452H130V54.2769L129 54.2763V64.1452ZM129 44.4084H130V34.5401L129 34.5395V44.4084ZM129 24.6716H130V14.8032L129 14.8026V24.6716ZM129 4.93482H130V0H129V4.93482Z" fill="#232323"/>
<path fill-rule="evenodd" clip-rule="evenodd" d="M902 750V745.066L903 745.065V750H902ZM903 725.328H902V735.197L903 735.197V725.328ZM902 715.461H903V705.592L902 705.592V715.461ZM902 695.724H903V685.855L902 685.855V695.724ZM902 675.987H903V666.118L902 666.118V675.987ZM902 656.25H903V646.382L902 646.381V656.25ZM902 636.513H903V626.644L902 626.645V636.513ZM902 616.776L903 616.776V606.907L902 606.908V616.776ZM902 597.039L903 597.039V587.171L902 587.171V597.039ZM902 577.303L903 577.302V567.434L902 567.434V577.303ZM902 557.566L903 557.565V547.697L902 547.697V557.566ZM902 537.829L903 537.829V527.96L902 527.961V537.829ZM902 518.092L903 518.092V508.224L902 508.223V518.092ZM902 498.355H903V488.487L902 488.487V498.355ZM902 478.618H903V468.75L902 468.75V478.618ZM902 458.882H903V449.013L902 449.013V458.882ZM902 439.145H903V429.276L902 429.276V439.145ZM902 419.408H903V409.54L902 409.539V419.408ZM902 399.671L903 399.671V389.803L902 389.802V399.671ZM902 379.934L903 379.934V370.066L902 370.066V379.934ZM902 360.198H903V350.329L902 350.329V360.198ZM902 340.461H903V330.592L902 330.592V340.461ZM902 320.724H903V310.855L902 310.855V320.724ZM902 300.987H903V291.119L902 291.118V300.987ZM902 281.25L903 281.25V271.382L902 271.382V281.25ZM902 261.513L903 261.513V251.645L902 251.645V261.513ZM902 241.777H903V231.908L902 231.908V241.777ZM902 222.04H903V212.171L902 212.171V222.04ZM902 202.303H903V192.435L902 192.434V202.303ZM902 182.566H903V172.698L902 172.697V182.566ZM902 162.829H903V152.961L902 152.961V162.829ZM902 143.093H903V133.224L902 133.224V143.093ZM902 123.356H903V113.487L902 113.487V123.356ZM902 103.619H903V93.7505L902 93.75V103.619ZM902 83.8821H903V74.0137L902 74.0132V83.8821ZM902 64.1452H903V54.2769L902 54.2763V64.1452ZM902 44.4084H903V34.5401L902 34.5395V44.4084ZM902 24.6716H903V14.8032L902 14.8026V24.6716ZM902 4.93482H903V0H902V4.93482Z" fill="#232323"/>
<path fill-rule="evenodd" clip-rule="evenodd" d="M387 750V745.066L388 745.065V750H387ZM388 725.328H387V735.197L388 735.197V725.328ZM387 715.461H388V705.592L387 705.592V715.461ZM387 695.724H388V685.855L387 685.855V695.724ZM387 675.987H388V666.118L387 666.118V675.987ZM387 656.25H388V646.382L387 646.381V656.25ZM387 636.513H388V626.644L387 626.645V636.513ZM387 616.776L388 616.776V606.907L387 606.908V616.776ZM387 597.039L388 597.039V587.171L387 587.171V597.039ZM387 577.303L388 577.302V567.434L387 567.434V577.303ZM387 557.566L388 557.565V547.697L387 547.697V557.566ZM387 537.829L388 537.829V527.96L387 527.961V537.829ZM387 518.092L388 518.092V508.224L387 508.223V518.092ZM387 498.355H388V488.487L387 488.487V498.355ZM387 478.618H388V468.75L387 468.75V478.618ZM387 458.882H388V449.013L387 449.013V458.882ZM387 439.145H388V429.276L387 429.276V439.145ZM387 419.408H388V409.54L387 409.539V419.408ZM387 399.671L388 399.671V389.803L387 389.802V399.671ZM387 379.934L388 379.934V370.066L387 370.066V379.934ZM387 360.198H388V350.329L387 350.329V360.198ZM387 340.461H388V330.592L387 330.592V340.461ZM387 320.724H388V310.855L387 310.855V320.724ZM387 300.987H388V291.119L387 291.118V300.987ZM387 281.25L388 281.25V271.382L387 271.382V281.25ZM387 261.513L388 261.513V251.645L387 251.645V261.513ZM387 241.777H388V231.908L387 231.908V241.777ZM387 222.04H388V212.171L387 212.171V222.04ZM387 202.303H388V192.435L387 192.434V202.303ZM387 182.566H388V172.698L387 172.697V182.566ZM387 162.829H388V152.961L387 152.961V162.829ZM387 143.093H388V133.224L387 133.224V143.093ZM387 123.356H388V113.487L387 113.487V123.356ZM387 103.619H388V93.7505L387 93.75V103.619ZM387 83.8821H388V74.0137L387 74.0132V83.8821ZM387 64.1452H388V54.2769L387 54.2763V64.1452ZM387 44.4084H388V34.5401L387 34.5395V44.4084ZM387 24.6716H388V14.8032L387 14.8026V24.6716ZM387 4.93482H388V0H387V4.93482Z" fill="#232323"/>
</g>
<defs>
<clipPath id="clip0">
<rect width="516" height="19" fill="white"/>
</clipPath>
</defs>
</svg>
