<svg width="542" height="542" viewBox="0 0 542 542" fill="none" xmlns="http://www.w3.org/2000/svg">
<path fill-rule="evenodd" clip-rule="evenodd" d="M513.421 390.016C469.429 479.452 377.402 541 271 541C229.615 541 190.404 531.689 155.349 515.047C155.175 515.335 154.994 515.618 154.805 515.896C190.019 532.634 229.416 542 271 542C377.763 542 470.107 480.263 514.277 390.541C513.987 390.373 513.701 390.198 513.421 390.016ZM527.224 356.375C536.161 329.542 541 300.836 541 271C541 163.665 478.368 70.958 387.657 27.433C387.782 27.1234 387.899 26.8097 388.008 26.492C479.099 70.1619 542 163.235 542 271C542 300.914 537.153 329.696 528.202 356.603C527.879 356.518 527.553 356.442 527.224 356.375ZM353.657 12.8366C327.599 4.50029 299.825 0 271 0C184.638 0 107.711 40.3972 58.0857 103.326C58.3593 103.517 58.6275 103.716 58.89 103.921C108.333 41.238 184.968 1 271 1C299.687 1 327.328 5.47374 353.266 13.7616C353.388 13.449 353.518 13.1406 353.657 12.8366ZM38.0497 134.407C37.7627 134.237 37.4807 134.058 37.204 133.872C13.5594 174.099 0 220.966 0 271C0 365.911 48.7909 449.426 122.659 497.832C122.799 497.526 122.947 497.224 123.102 496.927C49.565 448.689 1 365.516 1 271C1 221.162 14.5028 174.479 38.0497 134.407Z" fill="#B3B3B3"/>
<path d="M523.783 348.768L527.891 356.976L537.05 353.916" stroke="#B2B2B2"/>
<path d="M163.713 512.719L154.933 515.395L156.418 524.937" stroke="#B2B2B2"/>
<path d="M39.9921 143.367L37.8351 134.445L28.2227 135.368" stroke="#B2B2B2"/>
</svg>
