<svg width="180" height="40" viewBox="0 0 180 40" fill="none" xmlns="http://www.w3.org/2000/svg">
<path fill-rule="evenodd" clip-rule="evenodd" d="M23.6393 39.3847C34.11 39.3847 39.3847 34.5131 39.3847 25.8584C39.3847 15.0118 36.1714 8.09464 27.174 1.43719C22.6752 -1.10427 14.9632 -2.22443 1.78837 15.4178C-5.92368 29.738 13.1687 39.3847 23.6393 39.3847ZM20.9481 37.4154C29.3757 37.4154 33.6212 33.5182 33.6212 26.5944C33.6212 17.9171 31.0349 12.3834 23.7931 7.05742C20.1721 5.02426 13.9649 4.12813 3.36075 18.2419C-2.84651 29.6981 12.5205 37.4154 20.9481 37.4154Z" fill="#101010"/>
<path d="M47.6005 6.02533H54.3445L58.7162 19.2421L59.1229 22.1566H59.394L59.8006 19.2421L64.1723 6.02533H70.9163L62.3762 29.7477H56.1406L47.6005 6.02533ZM78.8646 11.1765H72.934V6.02533H90.963V11.1765H85.0324V29.7477H78.8646V11.1765Z" fill="#101010"/>
<path d="M98.633 20.4305L95.9659 14.7627H96.8763L98.8767 19.0712L99.069 19.738L99.2613 19.0712L101.262 14.7627H102.172L99.505 20.4305V23.7388H98.633V20.4305ZM105.077 23.867C104.444 23.867 103.884 23.7259 103.397 23.4438C102.909 23.1532 102.529 22.7557 102.256 22.2513C101.99 21.7384 101.858 21.1656 101.858 20.533C101.858 19.9004 101.99 19.332 102.256 18.8276C102.529 18.3147 102.909 17.9172 103.397 17.6351C103.884 17.3444 104.444 17.1991 105.077 17.1991C105.709 17.1991 106.269 17.3444 106.756 17.6351C107.244 17.9172 107.62 18.3147 107.885 18.8276C108.158 19.332 108.295 19.9004 108.295 20.533C108.295 21.1656 108.158 21.7384 107.885 22.2513C107.62 22.7557 107.244 23.1532 106.756 23.4438C106.269 23.7259 105.709 23.867 105.077 23.867ZM105.077 23.1233C105.513 23.1233 105.914 23.025 106.282 22.8283C106.649 22.6317 106.944 22.3368 107.167 21.9436C107.389 21.5503 107.5 21.0802 107.5 20.533C107.5 19.9859 107.389 19.5158 107.167 19.1225C106.944 18.7293 106.649 18.4344 106.282 18.2377C105.914 18.0411 105.513 17.9428 105.077 17.9428C104.641 17.9428 104.239 18.0411 103.871 18.2377C103.504 18.4344 103.209 18.7293 102.986 19.1225C102.764 19.5158 102.653 19.9859 102.653 20.533C102.653 21.0802 102.764 21.5503 102.986 21.9436C103.209 22.3368 103.504 22.6317 103.871 22.8283C104.239 23.025 104.641 23.1233 105.077 23.1233ZM111.681 23.867C111.031 23.867 110.522 23.6875 110.155 23.3284C109.787 22.9608 109.603 22.4394 109.603 21.764V17.3273H110.398V21.7256C110.398 22.153 110.527 22.4949 110.783 22.7514C111.04 22.9993 111.399 23.1233 111.86 23.1233C112.271 23.1233 112.664 22.9822 113.04 22.7001C113.425 22.418 113.732 22.0504 113.963 21.5973V17.3273H114.758V23.7388H113.963V22.6616C113.758 22.9779 113.446 23.26 113.027 23.508C112.608 23.7473 112.159 23.867 111.681 23.867ZM116.454 17.3273H117.249V18.289C117.429 17.9898 117.681 17.7334 118.006 17.5197C118.339 17.3059 118.694 17.1991 119.07 17.1991C119.318 17.1991 119.502 17.2333 119.622 17.3017L119.481 17.9813C119.378 17.9556 119.228 17.9428 119.032 17.9428C118.681 17.9428 118.339 18.0753 118.006 18.3403C117.673 18.5968 117.42 18.9302 117.249 19.3405V23.7388H116.454V17.3273ZM123.543 14.7627H125.954C126.869 14.7627 127.664 14.9508 128.339 15.3269C129.023 15.6945 129.549 16.216 129.916 16.8913C130.284 17.5667 130.468 18.3531 130.468 19.2507C130.468 20.1484 130.284 20.9348 129.916 21.6102C129.549 22.2855 129.023 22.8112 128.339 23.1874C127.664 23.555 126.869 23.7388 125.954 23.7388H123.543V14.7627ZM125.903 22.9437C127.108 22.9437 128.023 22.6274 128.647 21.9949C129.279 21.3537 129.596 20.439 129.596 19.2507C129.596 18.0625 129.279 17.1521 128.647 16.5195C128.023 15.8783 127.108 15.5577 125.903 15.5577H124.415V22.9437H125.903ZM134.676 23.867C134.077 23.867 133.547 23.7302 133.086 23.4567C132.624 23.1746 132.265 22.7813 132.008 22.277C131.752 21.7726 131.624 21.1913 131.624 20.533C131.624 19.8833 131.756 19.3063 132.021 18.8019C132.295 18.289 132.662 17.8958 133.124 17.6222C133.594 17.3401 134.107 17.1991 134.663 17.1991C135.218 17.1991 135.714 17.323 136.15 17.5709C136.595 17.8189 136.941 18.1779 137.189 18.6481C137.445 19.1182 137.574 19.6696 137.574 20.3022V20.6869H132.496C132.504 21.4135 132.709 22.0034 133.111 22.4565C133.521 22.901 134.047 23.1233 134.688 23.1233C135.253 23.1233 135.68 22.995 135.971 22.7386C136.27 22.4736 136.484 22.1274 136.612 21.6999H137.407C137.236 22.3753 136.92 22.9053 136.458 23.29C136.005 23.6747 135.411 23.867 134.676 23.867ZM136.779 20.0201C136.77 19.644 136.676 19.2978 136.496 18.9815C136.317 18.6566 136.065 18.4044 135.74 18.2249C135.424 18.0368 135.065 17.9428 134.663 17.9428C134.056 17.9428 133.56 18.1352 133.175 18.5198C132.791 18.9045 132.564 19.4046 132.496 20.0201H136.779ZM137.98 17.3273H138.839L140.749 22.3026L140.942 23.0463L141.134 22.3026L143.045 17.3273H143.904L141.391 23.7388H140.493L137.98 17.3273ZM147.436 23.867C146.837 23.867 146.307 23.7302 145.846 23.4567C145.384 23.1746 145.025 22.7813 144.769 22.277C144.512 21.7726 144.384 21.1913 144.384 20.533C144.384 19.8833 144.517 19.3063 144.782 18.8019C145.055 18.289 145.423 17.8958 145.884 17.6222C146.354 17.3401 146.867 17.1991 147.423 17.1991C147.979 17.1991 148.475 17.323 148.911 17.5709C149.355 17.8189 149.701 18.1779 149.949 18.6481C150.206 19.1182 150.334 19.6696 150.334 20.3022V20.6869H145.256C145.265 21.4135 145.47 22.0034 145.871 22.4565C146.282 22.901 146.808 23.1233 147.449 23.1233C148.013 23.1233 148.44 22.995 148.731 22.7386C149.03 22.4736 149.244 22.1274 149.372 21.6999H150.167C149.996 22.3753 149.68 22.9053 149.218 23.29C148.765 23.6747 148.171 23.867 147.436 23.867ZM149.539 20.0201C149.53 19.644 149.436 19.2978 149.257 18.9815C149.077 18.6566 148.825 18.4044 148.5 18.2249C148.184 18.0368 147.825 17.9428 147.423 17.9428C146.816 17.9428 146.32 18.1352 145.936 18.5198C145.551 18.9045 145.324 19.4046 145.256 20.0201H149.539ZM151.617 14.378H152.412V23.7388H151.617V14.378ZM156.994 23.867C156.362 23.867 155.802 23.7259 155.315 23.4438C154.827 23.1532 154.447 22.7557 154.173 22.2513C153.908 21.7384 153.776 21.1656 153.776 20.533C153.776 19.9004 153.908 19.332 154.173 18.8276C154.447 18.3147 154.827 17.9172 155.315 17.6351C155.802 17.3444 156.362 17.1991 156.994 17.1991C157.627 17.1991 158.187 17.3444 158.674 17.6351C159.161 17.9172 159.538 18.3147 159.803 18.8276C160.076 19.332 160.213 19.9004 160.213 20.533C160.213 21.1656 160.076 21.7384 159.803 22.2513C159.538 22.7557 159.161 23.1532 158.674 23.4438C158.187 23.7259 157.627 23.867 156.994 23.867ZM156.994 23.1233C157.43 23.1233 157.832 23.025 158.2 22.8283C158.567 22.6317 158.862 22.3368 159.084 21.9436C159.307 21.5503 159.418 21.0802 159.418 20.533C159.418 19.9859 159.307 19.5158 159.084 19.1225C158.862 18.7293 158.567 18.4344 158.2 18.2377C157.832 18.0411 157.43 17.9428 156.994 17.9428C156.558 17.9428 156.157 18.0411 155.789 18.2377C155.421 18.4344 155.126 18.7293 154.904 19.1225C154.682 19.5158 154.571 19.9859 154.571 20.533C154.571 21.0802 154.682 21.5503 154.904 21.9436C155.126 22.3368 155.421 22.6317 155.789 22.8283C156.157 23.025 156.558 23.1233 156.994 23.1233ZM161.573 17.3273H162.368V18.2377C162.598 17.9385 162.898 17.6906 163.265 17.494C163.641 17.2974 164.077 17.1991 164.573 17.1991C165.103 17.1991 165.578 17.3316 165.996 17.5966C166.415 17.853 166.744 18.2335 166.984 18.7378C167.223 19.2422 167.343 19.8406 167.343 20.533C167.343 21.2255 167.219 21.8239 166.971 22.3282C166.732 22.8326 166.398 23.2173 165.971 23.4823C165.552 23.7388 165.069 23.867 164.522 23.867C164.069 23.867 163.658 23.7815 163.291 23.6105C162.923 23.431 162.615 23.1746 162.368 22.8412V26.3034H161.573V17.3273ZM164.419 23.1233C165.069 23.1233 165.586 22.901 165.971 22.4565C166.355 22.0034 166.548 21.3623 166.548 20.533C166.548 19.6953 166.364 19.0541 165.996 18.6096C165.629 18.1651 165.103 17.9428 164.419 17.9428C163.983 17.9428 163.611 18.0411 163.304 18.2377C162.996 18.4344 162.761 18.6908 162.598 19.0071C162.444 19.3234 162.368 19.6568 162.368 20.0073V21.1357C162.368 21.4435 162.453 21.7512 162.624 22.059C162.804 22.3667 163.047 22.6232 163.355 22.8283C163.671 23.025 164.026 23.1233 164.419 23.1233ZM171.416 23.867C170.818 23.867 170.288 23.7302 169.826 23.4567C169.365 23.1746 169.006 22.7813 168.749 22.277C168.493 21.7726 168.364 21.1913 168.364 20.533C168.364 19.8833 168.497 19.3063 168.762 18.8019C169.035 18.289 169.403 17.8958 169.865 17.6222C170.335 17.3401 170.848 17.1991 171.403 17.1991C171.959 17.1991 172.455 17.323 172.891 17.5709C173.335 17.8189 173.682 18.1779 173.93 18.6481C174.186 19.1182 174.314 19.6696 174.314 20.3022V20.6869H169.236C169.245 21.4135 169.45 22.0034 169.852 22.4565C170.262 22.901 170.788 23.1233 171.429 23.1233C171.993 23.1233 172.421 22.995 172.711 22.7386C173.011 22.4736 173.224 22.1274 173.352 21.6999H174.148C173.977 22.3753 173.66 22.9053 173.199 23.29C172.746 23.6747 172.151 23.867 171.416 23.867ZM173.519 20.0201C173.511 19.644 173.417 19.2978 173.237 18.9815C173.058 18.6566 172.805 18.4044 172.481 18.2249C172.164 18.0368 171.805 17.9428 171.403 17.9428C170.796 17.9428 170.301 18.1352 169.916 18.5198C169.531 18.9045 169.305 19.4046 169.236 20.0201H173.519ZM175.598 17.3273H176.393V18.289C176.572 17.9898 176.824 17.7334 177.149 17.5197C177.483 17.3059 177.837 17.1991 178.213 17.1991C178.461 17.1991 178.645 17.2333 178.765 17.3017L178.624 17.9813C178.521 17.9556 178.372 17.9428 178.175 17.9428C177.825 17.9428 177.483 18.0753 177.149 18.3403C176.816 18.5968 176.564 18.9302 176.393 19.3405V23.7388H175.598V17.3273Z" fill="#101010"/>
</svg>
